STARTFONT 2.1
COMMENT
COMMENT Converted from OpenType font "CircularStd-Bold.otf" by "otf2bdf 3.0".
COMMENT
FONT -FreeType-Circular Std Bold-Medium-R-Normal--25-180-100-100-P-131-ISO10646-1
SIZE 18 100 100
FONTBOUNDINGBOX 40 29 -1 -6
STARTPROPERTIES 19
FOUNDRY "FreeType"
FAMILY_NAME "Circular Std Bold"
WEIGHT_NAME "Medium"
SLANT "R"
SETWIDTH_NAME "Normal"
ADD_STYLE_NAME ""
PIXEL_SIZE 25
POINT_SIZE 180
RESOLUTION_X 100
RESOLUTION_Y 100
SPACING "P"
AVERAGE_WIDTH 131
CHARSET_REGISTRY "ISO10646"
CHARSET_ENCODING "1"
FONT_ASCENT 24
FONT_DESCENT 6
COPYRIGHT "Generated in 2013 by FontLab Studio. Copyright info pending."
_OTF_FONTFILE "CircularStd-Bold.otf"
_OTF_PSNAME "CircularStd-Bold"
ENDPROPERTIES
CHARS 332
STARTCHAR 0000
ENCODING 0
SWIDTH 0 0
DWIDTH 0 0
BBX 0 0 0 0
BITMAP
ENDCHAR
STARTCHAR 000D
ENCODING 13
SWIDTH 240 0
DWIDTH 6 0
BBX 0 0 0 0
BITMAP
ENDCHAR
STARTCHAR 0020
ENCODING 32
SWIDTH 240 0
DWIDTH 6 0
BBX 0 0 0 0
BITMAP
ENDCHAR
STARTCHAR 0021
ENCODING 33
SWIDTH 320 0
DWIDTH 8 0
BBX 4 18 2 0
BITMAP
F0
F0
F0
F0
F0
F0
70
70
70
70
60
60
00
00
60
F0
F0
60
ENDCHAR
STARTCHAR 0022
ENCODING 34
SWIDTH 400 0
DWIDTH 10 0
BBX 8 7 1 9
BITMAP
E7
F7
E7
E7
E7
66
42
ENDCHAR
STARTCHAR 0023
ENCODING 35
SWIDTH 760 0
DWIDTH 19 0
BBX 17 16 1 0
BITMAP
031C00
071C00
071C00
071800
7FFF80
7FFF80
0E3800
0E3800
0C3000
0C3000
FFFE00
FFFE00
1C6000
186000
18E000
38E000
ENDCHAR
STARTCHAR 0024
ENCODING 36
SWIDTH 600 0
DWIDTH 15 0
BBX 13 22 1 -3
BITMAP
0700
0700
0700
1FC0
3FE0
7DF0
7070
7040
7800
7F00
3FC0
1FF0
03F0
0078
E078
F078
7FF0
3FE0
1FC0
0700
0700
0700
ENDCHAR
STARTCHAR 0025
ENCODING 37
SWIDTH 840 0
DWIDTH 21 0
BBX 19 16 1 0
BITMAP
3C0380
7F0700
F70E00
E31C00
E31C00
F73800
7E7000
3C7000
00E780
01CFC0
039FE0
039C60
071C60
0E1EE0
0E0FC0
1C0780
ENDCHAR
STARTCHAR 0026
ENCODING 38
SWIDTH 720 0
DWIDTH 18 0
BBX 15 18 2 0
BITMAP
1F00
3F80
7FC0
71C0
71C0
71C0
7BC0
3F80
1F04
3F0C
7F9C
F3FC
E1F8
E0F0
F1F8
FFFC
7FBC
1E1E
ENDCHAR
STARTCHAR 0027
ENCODING 39
SWIDTH 200 0
DWIDTH 5 0
BBX 4 7 1 9
BITMAP
E0
F0
E0
E0
E0
60
40
ENDCHAR
STARTCHAR 0028
ENCODING 40
SWIDTH 320 0
DWIDTH 8 0
BBX 7 24 1 -4
BITMAP
04
0E
1E
3C
38
70
70
70
E0
E0
E0
E0
E0
E0
E0
E0
70
70
70
38
3C
1E
0E
04
ENDCHAR
STARTCHAR 0029
ENCODING 41
SWIDTH 320 0
DWIDTH 8 0
BBX 7 24 0 -4
BITMAP
40
E0
70
38
38
1C
1C
0E
0E
0E
0E
0E
0E
0E
0E
0E
0E
1C
1C
38
38
70
E0
40
ENDCHAR
STARTCHAR 002A
ENCODING 42
SWIDTH 440 0
DWIDTH 11 0
BBX 10 10 1 8
BITMAP
1C00
1C00
9C80
FF80
FFC0
3F00
3E00
7F00
7780
2200
ENDCHAR
STARTCHAR 002B
ENCODING 43
SWIDTH 600 0
DWIDTH 15 0
BBX 12 13 1 1
BITMAP
0700
0700
0700
0700
0700
FFF0
FFF0
FFF0
0700
0700
0700
0700
0700
ENDCHAR
STARTCHAR 002C
ENCODING 44
SWIDTH 320 0
DWIDTH 8 0
BBX 4 8 2 -4
BITMAP
E0
F0
F0
F0
30
30
E0
C0
ENDCHAR
STARTCHAR 002D
ENCODING 45
SWIDTH 400 0
DWIDTH 10 0
BBX 7 3 1 6
BITMAP
FE
FE
FE
ENDCHAR
STARTCHAR 002E
ENCODING 46
SWIDTH 320 0
DWIDTH 8 0
BBX 4 4 2 0
BITMAP
E0
F0
F0
E0
ENDCHAR
STARTCHAR 002F
ENCODING 47
SWIDTH 480 0
DWIDTH 12 0
BBX 12 18 0 0
BITMAP
0070
00E0
00E0
01C0
01C0
0380
0380
0700
0700
0E00
0E00
1C00
1C00
3800
3800
7000
7000
E000
ENDCHAR
STARTCHAR 0030
ENCODING 48
SWIDTH 640 0
DWIDTH 16 0
BBX 14 16 1 0
BITMAP
0FC0
1FE0
3FF0
78F8
7078
F038
F03C
F03C
F03C
F038
F038
7078
78F8
3FF0
3FE0
0F80
ENDCHAR
STARTCHAR 0031
ENCODING 49
SWIDTH 400 0
DWIDTH 10 0
BBX 7 16 1 0
BITMAP
0E
1E
3E
FE
FE
0E
0E
0E
0E
0E
0E
0E
0E
0E
0E
0E
ENDCHAR
STARTCHAR 0032
ENCODING 50
SWIDTH 560 0
DWIDTH 14 0
BBX 12 16 1 0
BITMAP
1F80
3FC0
7FE0
F1E0
E0F0
E0F0
00E0
01E0
07C0
1F80
3E00
7C00
7000
FFF0
FFF0
FFF0
ENDCHAR
STARTCHAR 0033
ENCODING 51
SWIDTH 560 0
DWIDTH 14 0
BBX 12 16 1 0
BITMAP
FFE0
FFE0
FFE0
03E0
0780
0F00
1F80
0FE0
0FE0
00F0
20F0
E0F0
F0F0
FFE0
7FC0
1F00
ENDCHAR
STARTCHAR 0034
ENCODING 52
SWIDTH 600 0
DWIDTH 15 0
BBX 14 16 1 0
BITMAP
03E0
03E0
07E0
0FE0
1FE0
1DE0
39E0
79E0
F1E0
E1E0
FFFC
FFFC
FFFC
01E0
01E0
01E0
ENDCHAR
STARTCHAR 0035
ENCODING 53
SWIDTH 560 0
DWIDTH 14 0
BBX 12 16 1 0
BITMAP
3FE0
3FE0
7FE0
7000
7000
7700
7FC0
FFE0
30F0
00F0
0070
E070
F0F0
7FE0
3FC0
1F80
ENDCHAR
STARTCHAR 0036
ENCODING 54
SWIDTH 600 0
DWIDTH 15 0
BBX 13 16 1 0
BITMAP
03F0
0FF0
3FF0
3C00
7800
7380
FFE0
FFF0
F8F8
F078
F078
F078
7878
7FF0
3FE0
0F80
ENDCHAR
STARTCHAR 0037
ENCODING 55
SWIDTH 520 0
DWIDTH 13 0
BBX 12 16 0 0
BITMAP
FFF0
FFF0
FFF0
00F0
01E0
03C0
0380
0780
0F00
0F00
0E00
1E00
1E00
1C00
1C00
3C00
ENDCHAR
STARTCHAR 0038
ENCODING 56
SWIDTH 560 0
DWIDTH 14 0
BBX 12 16 1 0
BITMAP
1F80
3FE0
7FE0
F0F0
F0F0
70F0
7FE0
3FC0
3FE0
70F0
E070
E070
F0F0
7FF0
7FE0
1F80
ENDCHAR
STARTCHAR 0039
ENCODING 57
SWIDTH 600 0
DWIDTH 15 0
BBX 13 16 1 0
BITMAP
1F80
3FC0
7FE0
F0F0
E070
E070
E078
F0F8
7FF8
3FF0
1E70
00F0
01E0
7FE0
7F80
7E00
ENDCHAR
STARTCHAR 003A
ENCODING 58
SWIDTH 320 0
DWIDTH 8 0
BBX 4 12 2 0
BITMAP
E0
F0
F0
E0
00
00
00
00
60
F0
F0
E0
ENDCHAR
STARTCHAR 003B
ENCODING 59
SWIDTH 320 0
DWIDTH 8 0
BBX 4 16 2 -4
BITMAP
60
F0
F0
E0
00
00
00
00
00
F0
F0
F0
30
30
60
C0
ENDCHAR
STARTCHAR 003C
ENCODING 60
SWIDTH 480 0
DWIDTH 12 0
BBX 11 13 1 1
BITMAP
0020
00E0
03E0
0FC0
7E00
F800
E000
F800
7F00
1FC0
07E0
00E0
0020
ENDCHAR
STARTCHAR 003D
ENCODING 61
SWIDTH 600 0
DWIDTH 15 0
BBX 13 8 1 3
BITMAP
FFF8
FFF8
FFF8
0000
0000
FFF8
FFF8
FFF8
ENDCHAR
STARTCHAR 003E
ENCODING 62
SWIDTH 480 0
DWIDTH 12 0
BBX 11 13 1 1
BITMAP
8000
E000
F800
7E00
1F80
07E0
01E0
07E0
1F80
7E00
F800
E000
8000
ENDCHAR
STARTCHAR 003F
ENCODING 63
SWIDTH 520 0
DWIDTH 13 0
BBX 11 18 1 0
BITMAP
1F00
7FC0
7FE0
F1E0
E0E0
E0E0
00E0
03E0
07C0
0F80
0E00
0E00
0E00
0000
0C00
1E00
1E00
0E00
ENDCHAR
STARTCHAR 0040
ENCODING 64
SWIDTH 840 0
DWIDTH 21 0
BBX 19 19 1 -1
BITMAP
01F800
07FE00
1F1F00
3C0380
7001C0
71FCC0
63FCE0
E71CE0
E71CE0
C61CE0
E618C0
E739C0
E7FF80
73EF00
700000
380200
1E0600
0FFE00
03FC00
ENDCHAR
STARTCHAR 0041
ENCODING 65
SWIDTH 720 0
DWIDTH 18 0
BBX 18 18 0 0
BITMAP
01E000
03F000
03F000
03F000
07F800
077800
073800
0F3C00
0E1C00
1E1E00
1E1E00
1FFE00
3FFF00
3FFF00
380700
780780
700780
F003C0
ENDCHAR
STARTCHAR 0042
ENCODING 66
SWIDTH 600 0
DWIDTH 15 0
BBX 12 18 2 0
BITMAP
FF80
FFE0
FFE0
E0F0
E0F0
E0F0
E0E0
FFE0
FFC0
FFE0
E0F0
E070
E070
E070
E0F0
FFF0
FFE0
FF80
ENDCHAR
STARTCHAR 0043
ENCODING 67
SWIDTH 760 0
DWIDTH 19 0
BBX 17 18 1 0
BITMAP
03F000
0FFC00
1FFE00
3F3F00
7C0F80
780780
F00200
F00000
F00000
F00000
F00000
F00200
780780
7C0F80
3F3F00
1FFE00
0FFC00
03F000
ENDCHAR
STARTCHAR 0044
ENCODING 68
SWIDTH 720 0
DWIDTH 18 0
BBX 15 18 2 0
BITMAP
FFC0
FFF0
FFF8
E0FC
E03C
E01E
E01E
E01E
E00E
E00E
E01E
E01E
E01E
E03C
E0FC
FFF8
FFF0
FF80
ENDCHAR
STARTCHAR 0045
ENCODING 69
SWIDTH 600 0
DWIDTH 15 0
BBX 11 18 2 0
BITMAP
FFE0
FFE0
FFE0
E000
E000
E000
E000
FFC0
FFC0
FFC0
E000
E000
E000
E000
E000
FFE0
FFE0
FFE0
ENDCHAR
STARTCHAR 0046
ENCODING 70
SWIDTH 560 0
DWIDTH 14 0
BBX 11 18 2 0
BITMAP
FFE0
FFE0
FFE0
E000
E000
E000
E000
E000
FFC0
FFC0
FFC0
E000
E000
E000
E000
E000
E000
E000
ENDCHAR
STARTCHAR 0047
ENCODING 71
SWIDTH 800 0
DWIDTH 20 0
BBX 17 18 1 0
BITMAP
03F000
0FFC00
1FFE00
3F1F00
780F80
780780
F00000
F00000
F00000
E0FF80
F0FF80
F0FF80
700380
780780
3E1F80
3FFF80
0FFB80
03F380
ENDCHAR
STARTCHAR 0048
ENCODING 72
SWIDTH 760 0
DWIDTH 19 0
BBX 15 18 2 0
BITMAP
E01E
E01E
E01E
E01E
E01E
E01E
E01E
FFFE
FFFE
FFFE
E01E
E01E
E01E
E01E
E01E
E01E
E01E
E01E
ENDCHAR
STARTCHAR 0049
ENCODING 73
SWIDTH 320 0
DWIDTH 8 0
BBX 4 18 2 0
BITMAP
F0
F0
F0
F0
F0
F0
F0
F0
F0
F0
F0
F0
F0
F0
F0
F0
F0
F0
ENDCHAR
STARTCHAR 004A
ENCODING 74
SWIDTH 560 0
DWIDTH 14 0
BBX 12 18 0 0
BITMAP
0070
0070
0070
0070
0070
0070
0070
0070
0070
0070
0070
F070
F070
70F0
79F0
7FE0
3FC0
0F80
ENDCHAR
STARTCHAR 004B
ENCODING 75
SWIDTH 680 0
DWIDTH 17 0
BBX 15 18 2 0
BITMAP
E03E
E07C
E0F8
E0F0
E1E0
E3C0
E780
EF00
FF80
FF80
FFC0
FBE0
F1E0
E0F0
E0F8
E078
E03C
E03E
ENDCHAR
STARTCHAR 004C
ENCODING 76
SWIDTH 560 0
DWIDTH 14 0
BBX 11 18 2 0
BITMAP
E000
E000
E000
E000
E000
E000
E000
E000
E000
E000
E000
E000
E000
E000
E000
FFE0
FFE0
FFE0
ENDCHAR
STARTCHAR 004D
ENCODING 77
SWIDTH 960 0
DWIDTH 24 0
BBX 20 18 2 0
BITMAP
F801F0
F803F0
FC03F0
FC03F0
FC07F0
FE07F0
EE0FF0
EF0FF0
E70EF0
E71EF0
E79CF0
E3BCF0
E3FCF0
E1F8F0
E1F8F0
E1F0F0
E0F0F0
E0E0F0
ENDCHAR
STARTCHAR 004E
ENCODING 78
SWIDTH 760 0
DWIDTH 19 0
BBX 15 18 2 0
BITMAP
F80E
F80E
FC0E
FC0E
FE0E
EF0E
EF0E
E78E
E3CE
E3CE
E1EE
E1EE
E0FE
E07E
E07E
E03E
E01E
E01E
ENDCHAR
STARTCHAR 004F
ENCODING 79
SWIDTH 800 0
DWIDTH 20 0
BBX 18 18 1 0
BITMAP
03F000
0FFC00
1FFF00
3F3F00
7C0780
7803C0
F003C0
F003C0
F001C0
F001C0
F003C0
F003C0
7803C0
7C0780
3F3F00
1FFF00
0FFC00
03F000
ENDCHAR
STARTCHAR 0050
ENCODING 80
SWIDTH 600 0
DWIDTH 15 0
BBX 12 18 2 0
BITMAP
FF80
FFE0
FFF0
E0F0
E070
E070
E070
E0F0
FFF0
FFE0
FF80
E000
E000
E000
E000
E000
E000
E000
ENDCHAR
STARTCHAR 0051
ENCODING 81
SWIDTH 800 0
DWIDTH 20 0
BBX 18 19 1 -1
BITMAP
03F000
0FFC00
1FFF00
3F3F00
7C0780
7803C0
F003C0
F003C0
F001C0
F001C0
F033C0
F07BC0
783FC0
7C1F80
3F3F00
1FFF80
0FFF80
03F3C0
000180
ENDCHAR
STARTCHAR 0052
ENCODING 82
SWIDTH 640 0
DWIDTH 16 0
BBX 13 18 2 0
BITMAP
FFC0
FFE0
FFF0
E0F0
E078
E078
E078
E0F0
FFF0
FFE0
FF80
E380
E3C0
E1C0
E1E0
E0E0
E0F0
E070
ENDCHAR
STARTCHAR 0053
ENCODING 83
SWIDTH 600 0
DWIDTH 15 0
BBX 13 18 1 0
BITMAP
0FC0
3FE0
7FF0
78F8
7078
F000
7000
7F00
3FE0
1FF0
03F8
0078
E038
F038
F878
7FF0
3FE0
0FC0
ENDCHAR
STARTCHAR 0054
ENCODING 84
SWIDTH 600 0
DWIDTH 15 0
BBX 15 18 0 0
BITMAP
FFFE
FFFE
FFFE
0380
0380
0380
0380
0380
0380
0380
0380
0380
0380
0380
0380
0380
0380
0380
ENDCHAR
STARTCHAR 0055
ENCODING 85
SWIDTH 680 0
DWIDTH 17 0
BBX 13 18 2 0
BITMAP
E038
E038
E038
E038
E038
E038
E038
E038
E038
E038
E038
E038
F038
F078
7CF8
7FF0
3FE0
0F80
ENDCHAR
STARTCHAR 0056
ENCODING 86
SWIDTH 680 0
DWIDTH 17 0
BBX 17 18 0 0
BITMAP
F00780
780700
780F00
380F00
3C0E00
3C1E00
1C1E00
1E1C00
1E3C00
0E3800
0F3800
0F7800
077000
07F000
03F000
03E000
03E000
01E000
ENDCHAR
STARTCHAR 0057
ENCODING 87
SWIDTH 1040 0
DWIDTH 26 0
BBX 25 18 0 0
BITMAP
F01E0380
701E0780
783F0780
783F0700
383F0700
387F0F00
3C778F00
3C738E00
1CF38E00
1CE3DE00
1EE1DE00
1FE1DC00
0FE1FC00
0FC1FC00
0FC0F800
07C0F800
0780F800
07807800
ENDCHAR
STARTCHAR 0058
ENCODING 88
SWIDTH 680 0
DWIDTH 17 0
BBX 15 18 1 0
BITMAP
F01E
F03C
783C
3C78
3CF0
1EF0
0FE0
0FC0
07C0
07C0
0FC0
0FE0
1EF0
3CF0
3C78
783C
F03C
F01E
ENDCHAR
STARTCHAR 0059
ENCODING 89
SWIDTH 640 0
DWIDTH 16 0
BBX 15 18 1 0
BITMAP
F01E
F03C
783C
7878
3C70
3CF0
1EE0
0FE0
0FC0
0780
0780
0780
0780
0780
0780
0780
0780
0780
ENDCHAR
STARTCHAR 005A
ENCODING 90
SWIDTH 640 0
DWIDTH 16 0
BBX 14 18 1 0
BITMAP
FFFC
FFFC
FFFC
007C
00F8
01F0
01E0
03C0
0780
0F80
1F00
1E00
3C00
7800
F800
FFFC
FFFC
FFFC
ENDCHAR
STARTCHAR 005B
ENCODING 91
SWIDTH 320 0
DWIDTH 8 0
BBX 6 24 2 -4
BITMAP
FC
FC
FC
E0
E0
E0
E0
E0
E0
E0
E0
E0
E0
E0
E0
E0
E0
E0
E0
E0
E0
FC
FC
FC
ENDCHAR
STARTCHAR 005C
ENCODING 92
SWIDTH 480 0
DWIDTH 12 0
BBX 12 18 0 0
BITMAP
E000
7000
7000
3800
3800
1C00
1C00
0E00
0E00
0700
0700
0380
0380
01C0
01C0
00E0
00E0
0070
ENDCHAR
STARTCHAR 005D
ENCODING 93
SWIDTH 320 0
DWIDTH 8 0
BBX 6 24 0 -4
BITMAP
FC
FC
FC
1C
1C
1C
1C
1C
1C
1C
1C
1C
1C
1C
1C
1C
1C
1C
1C
1C
1C
FC
FC
FC
ENDCHAR
STARTCHAR 005E
ENCODING 94
SWIDTH 520 0
DWIDTH 13 0
BBX 12 9 1 9
BITMAP
0E00
0F00
1F00
3B80
3B80
71C0
71C0
E0E0
E0F0
ENDCHAR
STARTCHAR 005F
ENCODING 95
SWIDTH 520 0
DWIDTH 13 0
BBX 13 3 0 -3
BITMAP
FFF8
FFF8
FFF8
ENDCHAR
STARTCHAR 0060
ENCODING 96
SWIDTH 280 0
DWIDTH 7 0
BBX 5 4 1 14
BITMAP
F0
70
38
18
ENDCHAR
STARTCHAR 0061
ENCODING 97
SWIDTH 520 0
DWIDTH 13 0
BBX 11 12 1 0
BITMAP
1F00
3FC0
7FE0
F1E0
00E0
1FE0
7FE0
F0E0
E1E0
F1E0
7FE0
3CE0
ENDCHAR
STARTCHAR 0062
ENCODING 98
SWIDTH 600 0
DWIDTH 15 0
BBX 12 18 2 0
BITMAP
E000
E000
E000
E000
E000
E000
EF80
FFE0
FFF0
F0F0
E070
E070
E070
E070
F0F0
FFE0
FFE0
EF80
ENDCHAR
STARTCHAR 0063
ENCODING 99
SWIDTH 560 0
DWIDTH 14 0
BBX 12 12 1 0
BITMAP
0F80
3FC0
7FE0
F8F0
F040
E000
E000
F040
F8F0
7FE0
3FC0
0F80
ENDCHAR
STARTCHAR 0064
ENCODING 100
SWIDTH 600 0
DWIDTH 15 0
BBX 13 18 1 0
BITMAP
0070
0070
0070
0070
0070
0070
1F70
3FF0
7FF0
F0F0
F070
E070
E070
E070
F0F0
7FF0
3FF8
1F78
ENDCHAR
STARTCHAR 0065
ENCODING 101
SWIDTH 560 0
DWIDTH 14 0
BBX 12 12 1 0
BITMAP
0F80
3FC0
7FE0
F0F0
E070
FFF0
FFF0
E000
F0F0
7FE0
3FC0
0F80
ENDCHAR
STARTCHAR 0066
ENCODING 102
SWIDTH 360 0
DWIDTH 9 0
BBX 9 18 0 0
BITMAP
0780
1F80
1F80
1C00
3C00
3C00
FF80
FF80
FF80
3C00
3C00
3C00
3C00
3C00
3C00
3C00
3C00
3C00
ENDCHAR
STARTCHAR 0067
ENCODING 103
SWIDTH 600 0
DWIDTH 15 0
BBX 12 17 1 -5
BITMAP
1F70
3FF0
7FF0
F0F0
F070
E070
E070
F070
F8F0
7FF0
3FF0
0E70
6070
F0F0
7FE0
7FC0
1F80
ENDCHAR
STARTCHAR 0068
ENCODING 104
SWIDTH 600 0
DWIDTH 15 0
BBX 11 18 2 0
BITMAP
E000
E000
E000
E000
E000
E000
EF80
FFC0
FFE0
F1E0
E0E0
E0E0
E0E0
E0E0
E0E0
E0E0
E0E0
E0E0
ENDCHAR
STARTCHAR 0069
ENCODING 105
SWIDTH 280 0
DWIDTH 7 0
BBX 4 18 1 0
BITMAP
70
F0
F0
70
00
00
70
70
70
70
70
70
70
70
70
70
70
70
ENDCHAR
STARTCHAR 006A
ENCODING 106
SWIDTH 280 0
DWIDTH 7 0
BBX 6 23 -1 -5
BITMAP
1C
3C
3C
1C
00
00
1C
1C
1C
1C
1C
1C
1C
1C
1C
1C
1C
1C
1C
1C
FC
F8
F0
ENDCHAR
STARTCHAR 006B
ENCODING 107
SWIDTH 560 0
DWIDTH 14 0
BBX 11 18 2 0
BITMAP
E000
E000
E000
E000
E000
E000
E1E0
E3C0
E780
EF00
FE00
FE00
FF00
F780
E780
E3C0
E1E0
E1E0
ENDCHAR
STARTCHAR 006C
ENCODING 108
SWIDTH 280 0
DWIDTH 7 0
BBX 3 18 2 0
BITMAP
E0
E0
E0
E0
E0
E0
E0
E0
E0
E0
E0
E0
E0
E0
E0
E0
E0
E0
ENDCHAR
STARTCHAR 006D
ENCODING 109
SWIDTH 880 0
DWIDTH 22 0
BBX 19 12 2 0
BITMAP
EF8F00
FFDFC0
FFFFC0
F1E1E0
E0E1E0
E0E1E0
E0E1E0
E0E1E0
E0E1E0
E0E1E0
E0E1E0
E0E1E0
ENDCHAR
STARTCHAR 006E
ENCODING 110
SWIDTH 600 0
DWIDTH 15 0
BBX 11 12 2 0
BITMAP
E780
FFC0
FFE0
F1E0
E0E0
E0E0
E0E0
E0E0
E0E0
E0E0
E0E0
E0E0
ENDCHAR
STARTCHAR 006F
ENCODING 111
SWIDTH 600 0
DWIDTH 15 0
BBX 13 12 1 0
BITMAP
0F80
3FE0
7FF0
F8F0
F078
E078
E078
F078
F8F0
7FF0
3FE0
0F80
ENDCHAR
STARTCHAR 0070
ENCODING 112
SWIDTH 600 0
DWIDTH 15 0
BBX 12 17 2 -5
BITMAP
E780
FFE0
FFF0
F0F0
E070
E070
E070
E070
F0F0
FFE0
FFE0
EF80
E000
E000
E000
E000
E000
ENDCHAR
STARTCHAR 0071
ENCODING 113
SWIDTH 600 0
DWIDTH 15 0
BBX 13 17 1 -5
BITMAP
1F78
3FF8
7FF8
F0F8
F078
E078
E078
F078
F8F8
7FF8
3FF8
1F78
0078
0078
0078
0078
0078
ENDCHAR
STARTCHAR 0072
ENCODING 114
SWIDTH 400 0
DWIDTH 10 0
BBX 7 12 2 0
BITMAP
EE
FE
FE
F8
F0
E0
E0
E0
E0
E0
E0
E0
ENDCHAR
STARTCHAR 0073
ENCODING 115
SWIDTH 480 0
DWIDTH 12 0
BBX 10 12 1 0
BITMAP
3E00
7F80
FF80
E180
F000
7F00
3F80
07C0
E3C0
FF80
7F80
3E00
ENDCHAR
STARTCHAR 0074
ENCODING 116
SWIDTH 360 0
DWIDTH 9 0
BBX 8 16 0 0
BITMAP
1C
1C
1C
3C
FF
FF
FF
1C
1C
1C
1C
1C
1C
1F
1F
0F
ENDCHAR
STARTCHAR 0075
ENCODING 117
SWIDTH 600 0
DWIDTH 15 0
BBX 11 12 2 0
BITMAP
E0E0
E0E0
E0E0
E0E0
E0E0
E0E0
E0E0
E0E0
E1E0
FFE0
7FE0
3CE0
ENDCHAR
STARTCHAR 0076
ENCODING 118
SWIDTH 560 0
DWIDTH 14 0
BBX 13 12 0 0
BITMAP
F038
7078
7870
3870
3CF0
1CE0
1DE0
1FC0
0FC0
0FC0
0780
0780
ENDCHAR
STARTCHAR 0077
ENCODING 119
SWIDTH 840 0
DWIDTH 21 0
BBX 20 12 0 0
BITMAP
F07070
70F870
78F8F0
78F8E0
39DCE0
39DCE0
3F9DC0
1F8FC0
1F8FC0
1F0F80
0F0780
0F0780
ENDCHAR
STARTCHAR 0078
ENCODING 120
SWIDTH 520 0
DWIDTH 13 0
BBX 12 12 1 0
BITMAP
F0F0
F1E0
7BC0
3F80
1F80
1F00
1F00
1F80
3BC0
7BC0
F1E0
E0F0
ENDCHAR
STARTCHAR 0079
ENCODING 121
SWIDTH 560 0
DWIDTH 14 0
BBX 14 17 0 -5
BITMAP
F03C
7838
7878
3C70
3CF0
1CE0
1FE0
0FC0
0FC0
0780
0780
0780
0700
0F00
0E00
1E00
1C00
ENDCHAR
STARTCHAR 007A
ENCODING 122
SWIDTH 480 0
DWIDTH 12 0
BBX 10 12 1 0
BITMAP
FFC0
FFC0
FFC0
0780
0F00
1E00
3C00
7C00
F800
FFC0
FFC0
FFC0
ENDCHAR
STARTCHAR 007B
ENCODING 123
SWIDTH 360 0
DWIDTH 9 0
BBX 8 24 1 -4
BITMAP
07
0F
1F
1C
18
18
18
18
18
38
F8
E0
F8
38
38
18
18
18
18
18
1C
1F
0F
07
ENDCHAR
STARTCHAR 007C
ENCODING 124
SWIDTH 280 0
DWIDTH 7 0
BBX 3 24 2 -4
BITMAP
E0
E0
E0
E0
E0
E0
E0
E0
E0
E0
E0
E0
E0
E0
E0
E0
E0
E0
E0
E0
E0
E0
E0
E0
ENDCHAR
STARTCHAR 007D
ENCODING 125
SWIDTH 360 0
DWIDTH 9 0
BBX 8 24 0 -4
BITMAP
E0
F8
F8
1C
1C
1C
1C
1C
1C
1C
0F
07
0F
1E
1C
1C
1C
1C
1C
1C
1C
F8
F8
E0
ENDCHAR
STARTCHAR 007E
ENCODING 126
SWIDTH 600 0
DWIDTH 15 0
BBX 13 5 1 5
BITMAP
3800
7E10
FFF8
C7F0
01E0
ENDCHAR
STARTCHAR 00A0
ENCODING 160
SWIDTH 240 0
DWIDTH 6 0
BBX 0 0 0 0
BITMAP
ENDCHAR
STARTCHAR 00A1
ENCODING 161
SWIDTH 320 0
DWIDTH 8 0
BBX 4 17 2 -5
BITMAP
E0
F0
F0
60
00
60
E0
E0
E0
E0
E0
E0
E0
F0
F0
F0
F0
ENDCHAR
STARTCHAR 00A2
ENCODING 162
SWIDTH 560 0
DWIDTH 14 0
BBX 12 16 1 0
BITMAP
0600
0600
0F00
3FC0
7FE0
70F0
F040
E000
E000
F000
70F0
7FE0
3FC0
0F80
0600
0600
ENDCHAR
STARTCHAR 00A3
ENCODING 163
SWIDTH 600 0
DWIDTH 15 0
BBX 13 16 1 0
BITMAP
07C0
1FE0
3FF0
3870
3870
3800
3800
7FC0
7FC0
7FC0
1C00
1C38
3838
FFF8
FFF0
FFE0
ENDCHAR
STARTCHAR 00A4
ENCODING 164
SWIDTH 600 0
DWIDTH 15 0
BBX 12 12 1 0
BITMAP
4020
FFF0
7FF0
3FE0
70F0
7070
7070
70E0
3FE0
7FF0
EFF0
4020
ENDCHAR
STARTCHAR 00A5
ENCODING 165
SWIDTH 600 0
DWIDTH 15 0
BBX 13 16 1 0
BITMAP
F038
7078
7870
38F0
3DE0
1FC0
7FF8
7FF8
0700
0700
0700
7FF8
7FF8
0700
0700
0700
ENDCHAR
STARTCHAR 00A6
ENCODING 166
SWIDTH 280 0
DWIDTH 7 0
BBX 3 24 2 -4
BITMAP
E0
E0
E0
E0
E0
E0
E0
E0
E0
E0
00
00
00
00
E0
E0
E0
E0
E0
E0
E0
E0
E0
E0
ENDCHAR
STARTCHAR 00A7
ENCODING 167
SWIDTH 560 0
DWIDTH 14 0
BBX 10 23 2 -5
BITMAP
1F00
7F80
FFC0
E1C0
E1C0
E000
F800
7E00
7F80
EFC0
E3C0
E1C0
F1C0
FDC0
7F80
1F80
07C0
01C0
E1C0
E1C0
FFC0
7F80
3E00
ENDCHAR
STARTCHAR 00A8
ENCODING 168
SWIDTH 400 0
DWIDTH 10 0
BBX 8 4 1 14
BITMAP
40
E7
E7
E7
ENDCHAR
STARTCHAR 00A9
ENCODING 169
SWIDTH 800 0
DWIDTH 20 0
BBX 18 18 1 0
BITMAP
03F000
0FFC00
1C0F00
380380
71F180
63F9C0
E738C0
C618C0
CE00C0
CE00C0
C618C0
E738C0
63F9C0
71E180
380300
1E0F00
0FFC00
03F000
ENDCHAR
STARTCHAR 00AA
ENCODING 170
SWIDTH 440 0
DWIDTH 11 0
BBX 8 9 1 7
BITMAP
3E
7F
67
07
7F
63
E7
7F
7B
ENDCHAR
STARTCHAR 00AB
ENCODING 171
SWIDTH 520 0
DWIDTH 13 0
BBX 11 10 1 2
BITMAP
1CE0
39E0
79C0
7380
E780
E780
7380
79C0
39E0
1CE0
ENDCHAR
STARTCHAR 00AC
ENCODING 172
SWIDTH 600 0
DWIDTH 15 0
BBX 12 8 1 3
BITMAP
FFF0
FFF0
FFF0
0070
0070
0070
0070
0070
ENDCHAR
STARTCHAR 00AD
ENCODING 173
SWIDTH 400 0
DWIDTH 10 0
BBX 7 3 1 6
BITMAP
FE
FE
FE
ENDCHAR
STARTCHAR 00AE
ENCODING 174
SWIDTH 800 0
DWIDTH 20 0
BBX 18 18 1 0
BITMAP
03F000
0FFC00
1C0F00
380380
73F180
63F9C0
E318C0
C318C0
C338C0
C3F0C0
C370C0
E370C0
6339C0
731980
380300
1E0F00
0FFC00
03F000
ENDCHAR
STARTCHAR 00AF
ENCODING 175
SWIDTH 320 0
DWIDTH 8 0
BBX 7 2 1 15
BITMAP
FE
FE
ENDCHAR
STARTCHAR 00B0
ENCODING 176
SWIDTH 360 0
DWIDTH 9 0
BBX 8 8 1 8
BITMAP
3C
FE
EF
C7
C7
EF
FE
3C
ENDCHAR
STARTCHAR 00B1
ENCODING 177
SWIDTH 600 0
DWIDTH 15 0
BBX 11 13 2 1
BITMAP
0E00
0E00
0E00
FFE0
FFE0
FFE0
0E00
0E00
0E00
0000
FFE0
FFE0
FFE0
ENDCHAR
STARTCHAR 00B2
ENCODING 178
SWIDTH 400 0
DWIDTH 10 0
BBX 8 9 1 9
BITMAP
3C
7E
E6
E6
1E
3C
70
FF
FF
ENDCHAR
STARTCHAR 00B3
ENCODING 179
SWIDTH 400 0
DWIDTH 10 0
BBX 8 9 1 9
BITMAP
7F
7F
0E
3C
1F
07
E7
7F
3C
ENDCHAR
STARTCHAR 00B4
ENCODING 180
SWIDTH 280 0
DWIDTH 7 0
BBX 5 4 1 14
BITMAP
38
70
F0
E0
ENDCHAR
STARTCHAR 00B5
ENCODING 181
SWIDTH 600 0
DWIDTH 15 0
BBX 11 17 2 -5
BITMAP
E0E0
E0E0
E0E0
E0E0
E0E0
E0E0
E0E0
E0E0
F1E0
FFE0
FFE0
FEE0
E000
E000
E000
E000
E000
ENDCHAR
STARTCHAR 00B6
ENCODING 182
SWIDTH 680 0
DWIDTH 17 0
BBX 15 23 1 -5
BITMAP
1FFE
7FFE
FFFE
FF38
FF38
FF38
FF38
FF38
7F38
3F38
0738
0738
0738
0738
0738
0738
0738
0738
0738
0738
0738
0738
0738
ENDCHAR
STARTCHAR 00B7
ENCODING 183
SWIDTH 280 0
DWIDTH 7 0
BBX 4 4 2 6
BITMAP
E0
F0
F0
E0
ENDCHAR
STARTCHAR 00B8
ENCODING 184
SWIDTH 280 0
DWIDTH 7 0
BBX 6 6 1 -6
BITMAP
30
60
38
0C
FC
78
ENDCHAR
STARTCHAR 00B9
ENCODING 185
SWIDTH 320 0
DWIDTH 8 0
BBX 5 9 1 9
BITMAP
38
38
F8
F8
38
38
38
38
38
ENDCHAR
STARTCHAR 00BA
ENCODING 186
SWIDTH 480 0
DWIDTH 12 0
BBX 10 9 1 7
BITMAP
1E00
3F80
7380
61C0
E1C0
61C0
7380
3F00
1E00
ENDCHAR
STARTCHAR 00BB
ENCODING 187
SWIDTH 520 0
DWIDTH 13 0
BBX 11 10 1 2
BITMAP
E700
F380
73C0
39C0
3CE0
1CE0
39C0
71C0
F380
E700
ENDCHAR
STARTCHAR 00BC
ENCODING 188
SWIDTH 800 0
DWIDTH 20 0
BBX 18 16 1 0
BITMAP
180E00
380E00
F81C00
F83800
383800
387000
38E000
39C780
39C780
038F80
071B80
073380
0E3FC0
1C3FC0
380380
380380
ENDCHAR
STARTCHAR 00BD
ENCODING 189
SWIDTH 840 0
DWIDTH 21 0
BBX 18 16 1 0
BITMAP
180E00
380E00
F81C00
F83800
383800
387000
38E000
39C780
39CFC0
039CC0
071CC0
0703C0
0E0780
1C0E00
381FC0
381FC0
ENDCHAR
STARTCHAR 00BE
ENCODING 190
SWIDTH 880 0
DWIDTH 22 0
BBX 20 16 1 0
BITMAP
7F0180
7F0380
0E0700
3C0E00
1F0E00
071C00
E73800
7F31E0
3C73E0
00E3E0
01C6E0
01CCE0
038FF0
070FF0
0600E0
0E00E0
ENDCHAR
STARTCHAR 00BF
ENCODING 191
SWIDTH 480 0
DWIDTH 12 0
BBX 12 18 0 -6
BITMAP
0700
0700
0700
0700
0000
0700
0700
0F00
1E00
3E00
7800
7040
F070
F070
78F0
7FE0
3FC0
1F80
ENDCHAR
STARTCHAR 00C0
ENCODING 192
SWIDTH 720 0
DWIDTH 18 0
BBX 18 22 0 0
BITMAP
078000
03C000
01C000
000000
01E000
03F000
03F000
03F000
07F800
077800
073800
0F3C00
0E1C00
1E1E00
1E1E00
1FFE00
3FFF00
3FFF00
380700
780780
700780
F003C0
ENDCHAR
STARTCHAR 00C1
ENCODING 193
SWIDTH 720 0
DWIDTH 18 0
BBX 18 22 0 0
BITMAP
007800
00F000
00E000
000000
01E000
03F000
03F000
03F000
07F800
077800
073800
0F3C00
0E1C00
1E1E00
1E1E00
1FFE00
3FFF00
3FFF00
380700
780780
700780
F003C0
ENDCHAR
STARTCHAR 00C2
ENCODING 194
SWIDTH 720 0
DWIDTH 18 0
BBX 18 22 0 0
BITMAP
01E000
03F000
073800
000000
01E000
03F000
03F000
03F000
07F800
077800
073800
0F3C00
0E1C00
1E1E00
1E1E00
1FFE00
3FFF00
3FFF00
380700
780780
700780
F003C0
ENDCHAR
STARTCHAR 00C3
ENCODING 195
SWIDTH 720 0
DWIDTH 18 0
BBX 18 23 0 0
BITMAP
038000
07D800
07F800
067000
000000
01E000
03F000
03F000
03F000
07F800
077800
073800
0F3C00
0E1C00
1E1E00
1E1E00
1FFE00
3FFF00
3FFF00
380700
780780
700780
F003C0
ENDCHAR
STARTCHAR 00C4
ENCODING 196
SWIDTH 720 0
DWIDTH 18 0
BBX 18 23 0 0
BITMAP
040400
1E1E00
1E1E00
0C0C00
000000
01E000
03F000
03F000
03F000
07F800
077800
073800
0F3C00
0E1C00
1E1E00
1E1E00
1FFE00
3FFF00
3FFF00
380700
780780
700780
F003C0
ENDCHAR
STARTCHAR 00C5
ENCODING 197
SWIDTH 720 0
DWIDTH 18 0
BBX 18 23 0 0
BITMAP
01E000
03F000
033000
033000
033000
03F000
03F000
03F000
03F000
07F800
077800
073800
0F3C00
0E1C00
1E1E00
1E1E00
1FFE00
3FFF00
3FFF00
380700
780780
700780
F003C0
ENDCHAR
STARTCHAR 00C6
ENCODING 198
SWIDTH 1080 0
DWIDTH 27 0
BBX 24 18 1 0
BITMAP
001FFF
003FFF
007FFF
007F00
00F700
01E700
01E700
03C7FE
0787FE
0787FE
0F0700
1FFF00
1FFF00
3FFF00
7C0700
7807FF
F007FF
F007FF
ENDCHAR
STARTCHAR 00C7
ENCODING 199
SWIDTH 760 0
DWIDTH 19 0
BBX 17 24 1 -6
BITMAP
03F000
0FFC00
1FFE00
3F3F00
7C0F80
780780
F00200
F00000
F00000
F00000
F00000
F00000
F00380
780780
7C0F00
3FFF00
1FFE00
07F800
00C000
00C000
00F000
003000
03F000
01E000
ENDCHAR
STARTCHAR 00C8
ENCODING 200
SWIDTH 600 0
DWIDTH 15 0
BBX 11 22 2 0
BITMAP
3C00
1E00
0E00
0000
FFE0
FFE0
FFE0
E000
E000
E000
E000
FFC0
FFC0
FFC0
E000
E000
E000
E000
E000
FFE0
FFE0
FFE0
ENDCHAR
STARTCHAR 00C9
ENCODING 201
SWIDTH 600 0
DWIDTH 15 0
BBX 11 22 2 0
BITMAP
03C0
0700
0E00
0000
FFE0
FFE0
FFE0
E000
E000
E000
E000
FFC0
FFC0
FFC0
E000
E000
E000
E000
E000
FFE0
FFE0
FFE0
ENDCHAR
STARTCHAR 00CA
ENCODING 202
SWIDTH 600 0
DWIDTH 15 0
BBX 11 22 2 0
BITMAP
1F00
3B80
71C0
0000
FFE0
FFE0
FFE0
E000
E000
E000
E000
FFC0
FFC0
FFC0
E000
E000
E000
E000
E000
FFE0
FFE0
FFE0
ENDCHAR
STARTCHAR 00CB
ENCODING 203
SWIDTH 600 0
DWIDTH 15 0
BBX 11 23 2 0
BITMAP
2080
79C0
79C0
31C0
0000
FFE0
FFE0
FFE0
E000
E000
E000
E000
FFC0
FFC0
FFC0
E000
E000
E000
E000
E000
FFE0
FFE0
FFE0
ENDCHAR
STARTCHAR 00CC
ENCODING 204
SWIDTH 320 0
DWIDTH 8 0
BBX 7 22 -1 0
BITMAP
F0
38
1C
00
1E
1E
1E
1E
1E
1E
1E
1E
1E
1E
1E
1E
1E
1E
1E
1E
1E
1E
ENDCHAR
STARTCHAR 00CD
ENCODING 205
SWIDTH 320 0
DWIDTH 8 0
BBX 6 22 2 0
BITMAP
3C
78
F0
00
F0
F0
F0
F0
F0
F0
F0
F0
F0
F0
F0
F0
F0
F0
F0
F0
F0
F0
ENDCHAR
STARTCHAR 00CE
ENCODING 206
SWIDTH 320 0
DWIDTH 8 0
BBX 8 22 0 0
BITMAP
7C
7E
E7
00
3C
3C
3C
3C
3C
3C
3C
3C
3C
3C
3C
3C
3C
3C
3C
3C
3C
3C
ENDCHAR
STARTCHAR 00CF
ENCODING 207
SWIDTH 320 0
DWIDTH 8 0
BBX 8 22 0 0
BITMAP
E7
EF
E6
00
3C
3C
3C
3C
3C
3C
3C
3C
3C
3C
3C
3C
3C
3C
3C
3C
3C
3C
ENDCHAR
STARTCHAR 00D0
ENCODING 208
SWIDTH 760 0
DWIDTH 19 0
BBX 18 18 0 0
BITMAP
1FF000
1FFC00
1FFE00
1C3F00
1C0F80
1C0780
1C0380
FF83C0
FF83C0
FF83C0
1C03C0
1C0380
1C0780
1C0F80
1C1F00
1FFE00
1FFC00
1FF000
ENDCHAR
STARTCHAR 00D1
ENCODING 209
SWIDTH 760 0
DWIDTH 19 0
BBX 15 23 2 0
BITMAP
0600
0FB0
0FF0
19E0
0000
F80E
F80E
FC0E
FC0E
FE0E
EF0E
EF0E
E78E
E3CE
E3CE
E1EE
E1EE
E0FE
E07E
E07E
E03E
E01E
E01E
ENDCHAR
STARTCHAR 00D2
ENCODING 210
SWIDTH 800 0
DWIDTH 20 0
BBX 18 22 1 0
BITMAP
078000
038000
01C000
000000
03F000
0FFC00
1FFF00
3F3F00
7C0780
7803C0
F003C0
F003C0
F001C0
F001C0
F003C0
F003C0
7803C0
7C0780
3F3F00
1FFF00
0FFC00
03F000
ENDCHAR
STARTCHAR 00D3
ENCODING 211
SWIDTH 800 0
DWIDTH 20 0
BBX 18 22 1 0
BITMAP
007800
007000
00E000
000000
03F000
0FFC00
1FFF00
3F3F00
7C0780
7803C0
F003C0
F003C0
F001C0
F001C0
F003C0
F003C0
7803C0
7C0780
3F3F00
1FFF00
0FFC00
03F000
ENDCHAR
STARTCHAR 00D4
ENCODING 212
SWIDTH 800 0
DWIDTH 20 0
BBX 18 22 1 0
BITMAP
01E000
03F000
073800
000000
03F000
0FFC00
1FFF00
3F3F00
7C0780
7803C0
F003C0
F003C0
F001C0
F001C0
F003C0
F003C0
7803C0
7C0780
3F3F00
1FFF00
0FFC00
03F000
ENDCHAR
STARTCHAR 00D5
ENCODING 213
SWIDTH 800 0
DWIDTH 20 0
BBX 18 22 1 0
BITMAP
039800
07F800
067000
000000
03F000
0FFC00
1FFF00
3F3F00
7C0780
7803C0
F003C0
F003C0
F001C0
F001C0
F003C0
F003C0
7803C0
7C0780
3F3F00
1FFF00
0FFC00
03F000
ENDCHAR
STARTCHAR 00D6
ENCODING 214
SWIDTH 800 0
DWIDTH 20 0
BBX 18 22 1 0
BITMAP
0C0C00
1E1E00
1E0E00
080400
03F000
0FFC00
1FFF00
3F3F00
7C0780
7803C0
F003C0
F003C0
F001C0
F001C0
F003C0
F003C0
7803C0
7C0780
3F3F00
1FFF00
0FFC00
03F000
ENDCHAR
STARTCHAR 00D7
ENCODING 215
SWIDTH 560 0
DWIDTH 14 0
BBX 12 13 1 1
BITMAP
4020
E070
F0F0
79E0
3FC0
1F80
0F00
1F80
3FC0
79E0
F0F0
E070
4020
ENDCHAR
STARTCHAR 00D8
ENCODING 216
SWIDTH 800 0
DWIDTH 20 0
BBX 18 20 1 -1
BITMAP
000100
03F380
0FFF80
1FFF00
3F3F00
7C1F80
783FC0
F07BC0
F073C0
F0E1C0
F1C1C0
F3C3C0
F783C0
7F03C0
7E0780
3F3F00
3FFF00
7FFC00
73F000
200000
ENDCHAR
STARTCHAR 00D9
ENCODING 217
SWIDTH 680 0
DWIDTH 17 0
BBX 13 22 2 0
BITMAP
3E00
0E00
0700
0000
E038
E038
E038
E038
E038
E038
E038
E038
E038
E038
E038
E038
F038
F078
7CF8
7FF0
3FE0
0F80
ENDCHAR
STARTCHAR 00DA
ENCODING 218
SWIDTH 680 0
DWIDTH 17 0
BBX 13 22 2 0
BITMAP
01E0
0380
0700
0000
E038
E038
E038
E038
E038
E038
E038
E038
E038
E038
E038
E038
F038
F078
7CF8
7FF0
3FE0
0F80
ENDCHAR
STARTCHAR 00DB
ENCODING 219
SWIDTH 680 0
DWIDTH 17 0
BBX 13 22 2 0
BITMAP
0F80
1DC0
38E0
0000
E038
E038
E038
E038
E038
E038
E038
E038
E038
E038
E038
E038
F038
F078
7CF8
7FF0
3FE0
0F80
ENDCHAR
STARTCHAR 00DC
ENCODING 220
SWIDTH 680 0
DWIDTH 17 0
BBX 13 23 2 0
BITMAP
1040
38E0
38E0
38E0
0000
E038
E038
E038
E038
E038
E038
E038
E038
E038
E038
E038
E038
F038
F078
7CF8
7FF0
3FE0
0F80
ENDCHAR
STARTCHAR 00DD
ENCODING 221
SWIDTH 640 0
DWIDTH 16 0
BBX 15 22 1 0
BITMAP
01E0
03C0
0380
0000
F01E
F03C
783C
7878
3C70
3CF0
1EE0
0FE0
0FC0
0780
0780
0780
0780
0780
0780
0780
0780
0780
ENDCHAR
STARTCHAR 00DE
ENCODING 222
SWIDTH 600 0
DWIDTH 15 0
BBX 12 18 2 0
BITMAP
E000
E000
E000
FF80
FFE0
FFF0
E0F0
E070
E070
E070
E0F0
FFF0
FFE0
FF80
E000
E000
E000
E000
ENDCHAR
STARTCHAR 00DF
ENCODING 223
SWIDTH 600 0
DWIDTH 15 0
BBX 12 18 2 0
BITMAP
1F00
3FC0
7FE0
F1E0
E0E0
E0E0
E1E0
E3C0
E780
E700
E7C0
E7E0
E3F0
E070
EE70
EFF0
E7F0
E3C0
ENDCHAR
STARTCHAR 00E0
ENCODING 224
SWIDTH 520 0
DWIDTH 13 0
BBX 11 17 1 0
BITMAP
3800
1C00
1E00
0E00
0000
1F00
3FC0
7FE0
F1E0
00E0
1FE0
7FE0
F0E0
E1E0
F1E0
7FE0
3CE0
ENDCHAR
STARTCHAR 00E1
ENCODING 225
SWIDTH 520 0
DWIDTH 13 0
BBX 11 17 1 0
BITMAP
03C0
0780
0700
0E00
0000
1F00
3FC0
7FE0
F1E0
00E0
1FE0
7FE0
F0E0
E1E0
F1E0
7FE0
3CE0
ENDCHAR
STARTCHAR 00E2
ENCODING 226
SWIDTH 520 0
DWIDTH 13 0
BBX 11 17 1 0
BITMAP
0F00
1F00
3B80
31C0
0000
1F00
3FC0
7FE0
F1E0
00E0
1FE0
7FE0
F0E0
E1E0
F1E0
7FE0
3CE0
ENDCHAR
STARTCHAR 00E3
ENCODING 227
SWIDTH 520 0
DWIDTH 13 0
BBX 11 17 1 0
BITMAP
3CC0
3FC0
7780
0000
0000
1F00
3FC0
7FE0
F1E0
00E0
1FE0
7FE0
F0E0
E1E0
F1E0
7FE0
3CE0
ENDCHAR
STARTCHAR 00E4
ENCODING 228
SWIDTH 520 0
DWIDTH 13 0
BBX 11 17 1 0
BITMAP
31C0
79C0
79C0
0000
0000
1F00
3FC0
7FE0
F1E0
00E0
1FE0
7FE0
F0E0
E1E0
F1E0
7FE0
3CE0
ENDCHAR
STARTCHAR 00E5
ENCODING 229
SWIDTH 520 0
DWIDTH 13 0
BBX 11 18 1 0
BITMAP
0E00
1F00
1300
1F00
0E00
0000
1F00
3FC0
7FE0
F1E0
00E0
1FE0
7FE0
F0E0
E1E0
F1E0
7FE0
3CE0
ENDCHAR
STARTCHAR 00E6
ENCODING 230
SWIDTH 880 0
DWIDTH 22 0
BBX 20 12 1 0
BITMAP
1F0F80
3FFFC0
7FFFE0
F0F0E0
00E070
1FFFF0
7FFFF0
F0E000
E1F0F0
FFFFE0
7FBFC0
3E1F80
ENDCHAR
STARTCHAR 00E7
ENCODING 231
SWIDTH 560 0
DWIDTH 14 0
BBX 12 18 1 -6
BITMAP
0F80
3FC0
7FE0
78F0
F060
E000
E000
E000
F060
78F0
7FE0
3FC0
0F00
0600
0780
0180
1F80
0F00
ENDCHAR
STARTCHAR 00E8
ENCODING 232
SWIDTH 560 0
DWIDTH 14 0
BBX 12 17 1 0
BITMAP
3C00
1C00
0E00
0600
0000
0F80
3FC0
7FE0
F0F0
E070
FFF0
FFF0
E000
F0F0
7FE0
3FC0
0F80
ENDCHAR
STARTCHAR 00E9
ENCODING 233
SWIDTH 560 0
DWIDTH 14 0
BBX 12 17 1 0
BITMAP
03C0
0380
0700
0600
0000
0F80
3FC0
7FE0
F0F0
E070
FFF0
FFF0
E000
F0F0
7FE0
3FC0
0F80
ENDCHAR
STARTCHAR 00EA
ENCODING 234
SWIDTH 560 0
DWIDTH 14 0
BBX 12 17 1 0
BITMAP
0F00
1F80
1F80
39C0
0000
0F80
3FC0
7FE0
F0F0
E070
FFF0
FFF0
E000
F0F0
7FE0
3FC0
0F80
ENDCHAR
STARTCHAR 00EB
ENCODING 235
SWIDTH 560 0
DWIDTH 14 0
BBX 12 17 1 0
BITMAP
39C0
39C0
39C0
1080
0000
0F80
3FC0
7FE0
F0F0
E070
FFF0
FFF0
E000
F0F0
7FE0
3FC0
0F80
ENDCHAR
STARTCHAR 00EC
ENCODING 236
SWIDTH 280 0
DWIDTH 7 0
BBX 6 17 -1 0
BITMAP
F0
78
38
1C
00
1C
1C
1C
1C
1C
1C
1C
1C
1C
1C
1C
1C
ENDCHAR
STARTCHAR 00ED
ENCODING 237
SWIDTH 280 0
DWIDTH 7 0
BBX 6 17 2 0
BITMAP
3C
78
70
E0
00
E0
E0
E0
E0
E0
E0
E0
E0
E0
E0
E0
E0
ENDCHAR
STARTCHAR 00EE
ENCODING 238
SWIDTH 280 0
DWIDTH 7 0
BBX 9 17 -1 0
BITMAP
3C00
3E00
7700
E380
0000
1C00
1C00
1C00
1C00
1C00
1C00
1C00
1C00
1C00
1C00
1C00
1C00
ENDCHAR
STARTCHAR 00EF
ENCODING 239
SWIDTH 280 0
DWIDTH 7 0
BBX 7 17 0 0
BITMAP
CE
EE
EE
00
00
38
38
38
38
38
38
38
38
38
38
38
38
ENDCHAR
STARTCHAR 00F0
ENCODING 240
SWIDTH 600 0
DWIDTH 15 0
BBX 13 19 1 0
BITMAP
1800
1E20
3FF0
07E0
1FC0
1DE0
00F0
1F70
3FF0
7FF8
F0F8
E078
E078
E078
F070
F8F0
7FE0
3FC0
0F80
ENDCHAR
STARTCHAR 00F1
ENCODING 241
SWIDTH 600 0
DWIDTH 15 0
BBX 11 17 2 0
BITMAP
3CC0
7FC0
7F80
0000
0000
E780
FFC0
FFE0
F1E0
E0E0
E0E0
E0E0
E0E0
E0E0
E0E0
E0E0
E0E0
ENDCHAR
STARTCHAR 00F2
ENCODING 242
SWIDTH 600 0
DWIDTH 15 0
BBX 13 17 1 0
BITMAP
3C00
1C00
0E00
0700
0000
0F80
3FE0
7FF0
F8F0
F078
E078
E078
F078
F8F0
7FF0
3FE0
0F80
ENDCHAR
STARTCHAR 00F3
ENCODING 243
SWIDTH 600 0
DWIDTH 15 0
BBX 13 17 1 0
BITMAP
01C0
0380
0780
0700
0000
0F80
3FE0
7FF0
F8F0
F078
E078
E078
F078
F8F0
7FF0
3FE0
0F80
ENDCHAR
STARTCHAR 00F4
ENCODING 244
SWIDTH 600 0
DWIDTH 15 0
BBX 13 17 1 0
BITMAP
0F00
0F80
1DC0
38C0
0000
0F80
3FE0
7FF0
F8F0
F078
E078
E078
F078
F8F0
7FF0
3FE0
0F80
ENDCHAR
STARTCHAR 00F5
ENCODING 245
SWIDTH 600 0
DWIDTH 15 0
BBX 13 17 1 0
BITMAP
1C60
3FE0
3FC0
0000
0000
0F80
3FE0
7FF0
F8F0
F078
E078
E078
F078
F8F0
7FF0
3FE0
0F80
ENDCHAR
STARTCHAR 00F6
ENCODING 246
SWIDTH 600 0
DWIDTH 15 0
BBX 13 17 1 0
BITMAP
38C0
39E0
39E0
1000
0000
0F80
3FE0
7FF0
F8F0
F078
E078
E078
F078
F8F0
7FF0
3FE0
0F80
ENDCHAR
STARTCHAR 00F7
ENCODING 247
SWIDTH 600 0
DWIDTH 15 0
BBX 12 13 1 1
BITMAP
0700
0F00
0F00
0600
0000
FFF0
FFF0
FFF0
0000
0600
0F00
0F00
0700
ENDCHAR
STARTCHAR 00F8
ENCODING 248
SWIDTH 600 0
DWIDTH 15 0
BBX 13 14 1 -1
BITMAP
0020
0FB0
3FF0
7FE0
F9F0
F3F8
E778
E678
FC78
F8F0
7FF0
7FE0
EF80
4000
ENDCHAR
STARTCHAR 00F9
ENCODING 249
SWIDTH 600 0
DWIDTH 15 0
BBX 11 17 2 0
BITMAP
7800
3C00
1C00
0E00
0000
E0E0
E0E0
E0E0
E0E0
E0E0
E0E0
E0E0
E0E0
E1E0
FFE0
7FE0
3CE0
ENDCHAR
STARTCHAR 00FA
ENCODING 250
SWIDTH 600 0
DWIDTH 15 0
BBX 11 17 2 0
BITMAP
0780
0700
0E00
1C00
0000
E0E0
E0E0
E0E0
E0E0
E0E0
E0E0
E0E0
E0E0
E1E0
FFE0
7FE0
3CE0
ENDCHAR
STARTCHAR 00FB
ENCODING 251
SWIDTH 600 0
DWIDTH 15 0
BBX 11 17 2 0
BITMAP
1E00
1F00
3B80
7180
0000
E0E0
E0E0
E0E0
E0E0
E0E0
E0E0
E0E0
E0E0
E1E0
FFE0
7FE0
3CE0
ENDCHAR
STARTCHAR 00FC
ENCODING 252
SWIDTH 600 0
DWIDTH 15 0
BBX 11 17 2 0
BITMAP
7180
73C0
73C0
0000
0000
E0E0
E0E0
E0E0
E0E0
E0E0
E0E0
E0E0
E0E0
E1E0
FFE0
7FE0
3CE0
ENDCHAR
STARTCHAR 00FD
ENCODING 253
SWIDTH 560 0
DWIDTH 14 0
BBX 14 22 0 -5
BITMAP
01E0
01C0
0380
0700
0000
F03C
7838
7878
3C70
3CF0
1CE0
1FE0
0FC0
0FC0
0780
0780
0780
0700
0F00
0E00
1E00
1C00
ENDCHAR
STARTCHAR 00FE
ENCODING 254
SWIDTH 600 0
DWIDTH 15 0
BBX 12 23 2 -5
BITMAP
E000
E000
E000
E000
E000
E000
EF80
FFE0
FFF0
F0F0
E070
E070
E070
E070
F0F0
FFE0
FFE0
EF80
E000
E000
E000
E000
E000
ENDCHAR
STARTCHAR 00FF
ENCODING 255
SWIDTH 560 0
DWIDTH 14 0
BBX 14 22 0 -5
BITMAP
1CE0
1CE0
1CE0
0840
0000
F03C
7838
7878
3C70
3CF0
1CE0
1FE0
0FC0
0FC0
0780
0780
0780
0700
0F00
0E00
1E00
1C00
ENDCHAR
STARTCHAR 0131
ENCODING 305
SWIDTH 280 0
DWIDTH 7 0
BBX 3 12 2 0
BITMAP
E0
E0
E0
E0
E0
E0
E0
E0
E0
E0
E0
E0
ENDCHAR
STARTCHAR 0141
ENCODING 321
SWIDTH 600 0
DWIDTH 15 0
BBX 14 18 0 0
BITMAP
1C00
1C00
1C00
1C00
1C00
1C40
1DC0
1FC0
1F80
7E00
FC00
DC00
1C00
1C00
1C00
1FFC
1FFC
1FFC
ENDCHAR
STARTCHAR 0142
ENCODING 322
SWIDTH 320 0
DWIDTH 8 0
BBX 8 18 0 0
BITMAP
3C
3C
3C
3C
3C
3C
3C
3F
3F
7E
FC
FC
3C
3C
3C
3C
3C
3C
ENDCHAR
STARTCHAR 0152
ENCODING 338
SWIDTH 1120 0
DWIDTH 28 0
BBX 26 18 1 0
BITMAP
03F1FFC0
0FFDFFC0
1FFFFFC0
3E0FC000
7807C000
7003C000
F003C000
F001FF80
F001FF80
F001FF80
F003C000
F003C000
7803C000
7807C000
3E1FC000
1FFFFFC0
0FFDFFC0
03F1FFC0
ENDCHAR
STARTCHAR 0153
ENCODING 339
SWIDTH 920 0
DWIDTH 23 0
BBX 22 12 1 0
BITMAP
0F87C0
3FEFF0
7FFFF8
78F838
F07838
E07FFC
E07FFC
F07800
F8FC38
7FFFF8
3FEFF0
0F87C0
ENDCHAR
STARTCHAR 0160
ENCODING 352
SWIDTH 600 0
DWIDTH 15 0
BBX 13 22 1 0
BITMAP
3CE0
1FC0
0F80
0000
0FC0
3FE0
7FF0
78F8
7078
F000
7000
7F00
3FE0
1FF0
03F8
0078
E038
F038
F878
7FF0
3FE0
0FC0
ENDCHAR
STARTCHAR 0161
ENCODING 353
SWIDTH 480 0
DWIDTH 12 0
BBX 10 17 1 0
BITMAP
6380
7700
3E00
1E00
0000
3E00
7F80
FF80
E180
F000
7F00
3F80
07C0
E3C0
FF80
7F80
3E00
ENDCHAR
STARTCHAR 0178
ENCODING 376
SWIDTH 640 0
DWIDTH 16 0
BBX 15 23 1 0
BITMAP
0820
1C70
3CF0
1C60
0000
F01E
F03C
783C
7878
3C70
3CF0
1EE0
0FE0
0FC0
0780
0780
0780
0780
0780
0780
0780
0780
0780
ENDCHAR
STARTCHAR 017D
ENCODING 381
SWIDTH 640 0
DWIDTH 16 0
BBX 14 22 1 0
BITMAP
1CE0
0FC0
0780
0000
FFFC
FFFC
FFFC
007C
00F8
01F0
01E0
03C0
0780
0F80
1F00
1E00
3C00
7800
F800
FFFC
FFFC
FFFC
ENDCHAR
STARTCHAR 017E
ENCODING 382
SWIDTH 480 0
DWIDTH 12 0
BBX 10 17 1 0
BITMAP
7380
3B00
3F00
1E00
0000
FFC0
FFC0
FFC0
0780
0F00
1E00
3C00
7C00
F800
FFC0
FFC0
FFC0
ENDCHAR
STARTCHAR 0192
ENCODING 402
SWIDTH 520 0
DWIDTH 13 0
BBX 14 22 -1 -4
BITMAP
007C
00FC
01FC
01E0
01C0
03C0
1FF8
1FF8
1FF8
0380
0780
0780
0700
0700
0700
0F00
0F00
0E00
1E00
FE00
FC00
F800
ENDCHAR
STARTCHAR 02C6
ENCODING 710
SWIDTH 400 0
DWIDTH 10 0
BBX 8 3 1 14
BITMAP
3C
7E
E7
ENDCHAR
STARTCHAR 02C7
ENCODING 711
SWIDTH 400 0
DWIDTH 10 0
BBX 8 3 1 14
BITMAP
E7
7E
3C
ENDCHAR
STARTCHAR 02C9
ENCODING 713
SWIDTH 320 0
DWIDTH 8 0
BBX 7 2 1 15
BITMAP
FE
FE
ENDCHAR
STARTCHAR 02D8
ENCODING 728
SWIDTH 360 0
DWIDTH 9 0
BBX 8 3 1 14
BITMAP
C7
FE
7C
ENDCHAR
STARTCHAR 02D9
ENCODING 729
SWIDTH 200 0
DWIDTH 5 0
BBX 4 4 0 14
BITMAP
70
F0
F0
70
ENDCHAR
STARTCHAR 02DA
ENCODING 730
SWIDTH 280 0
DWIDTH 7 0
BBX 5 6 1 13
BITMAP
70
F8
D8
D8
F8
70
ENDCHAR
STARTCHAR 02DB
ENCODING 731
SWIDTH 240 0
DWIDTH 6 0
BBX 4 6 1 -6
BITMAP
70
C0
C0
C0
F0
70
ENDCHAR
STARTCHAR 02DC
ENCODING 732
SWIDTH 400 0
DWIDTH 10 0
BBX 8 3 1 14
BITMAP
73
FF
DF
ENDCHAR
STARTCHAR 02DD
ENCODING 733
SWIDTH 400 0
DWIDTH 10 0
BBX 8 4 1 14
BITMAP
77
EE
EE
CC
ENDCHAR
STARTCHAR 0394
ENCODING 916
SWIDTH 680 0
DWIDTH 17 0
BBX 17 18 0 0
BITMAP
01E000
03E000
03E000
07F000
077000
077800
0F3800
0E3800
0E3C00
1E1C00
1C1C00
3C1E00
3C0E00
380F00
780F00
7FFF00
7FFF80
FFFF80
ENDCHAR
STARTCHAR 03A9
ENCODING 937
SWIDTH 800 0
DWIDTH 20 0
BBX 17 18 1 0
BITMAP
03F000
0FFC00
3FFE00
3E3F00
780F80
700780
F00380
F00380
F00380
F00380
700780
780780
3C0F00
1F3E00
0F3800
FF3F80
FF3F80
FF3F80
ENDCHAR
STARTCHAR 03BC
ENCODING 956
SWIDTH 600 0
DWIDTH 15 0
BBX 11 17 2 -5
BITMAP
E0E0
E0E0
E0E0
E0E0
E0E0
E0E0
E0E0
E0E0
F1E0
FFE0
FFE0
FEE0
E000
E000
E000
E000
E000
ENDCHAR
STARTCHAR 03C0
ENCODING 960
SWIDTH 640 0
DWIDTH 16 0
BBX 14 12 1 0
BITMAP
FFFC
FFFC
FFFC
3870
3870
3870
3870
3870
3870
387C
387C
383C
ENDCHAR
STARTCHAR 2007
ENCODING 8199
SWIDTH 640 0
DWIDTH 16 0
BBX 0 0 0 0
BITMAP
ENDCHAR
STARTCHAR 2008
ENCODING 8200
SWIDTH 320 0
DWIDTH 8 0
BBX 0 0 0 0
BITMAP
ENDCHAR
STARTCHAR 200B
ENCODING 8203
SWIDTH 0 0
DWIDTH 0 0
BBX 0 0 0 0
BITMAP
ENDCHAR
STARTCHAR 2013
ENCODING 8211
SWIDTH 640 0
DWIDTH 16 0
BBX 12 3 2 6
BITMAP
FFF0
FFF0
FFF0
ENDCHAR
STARTCHAR 2014
ENCODING 8212
SWIDTH 1080 0
DWIDTH 27 0
BBX 23 3 2 6
BITMAP
FFFFFE
FFFFFE
FFFFFE
ENDCHAR
STARTCHAR 2018
ENCODING 8216
SWIDTH 240 0
DWIDTH 6 0
BBX 4 7 1 11
BITMAP
30
70
C0
C0
F0
F0
60
ENDCHAR
STARTCHAR 2019
ENCODING 8217
SWIDTH 240 0
DWIDTH 6 0
BBX 4 7 1 11
BITMAP
60
F0
F0
70
30
E0
C0
ENDCHAR
STARTCHAR 201A
ENCODING 8218
SWIDTH 240 0
DWIDTH 6 0
BBX 4 8 1 -4
BITMAP
40
F0
F0
F0
30
20
E0
C0
ENDCHAR
STARTCHAR 201C
ENCODING 8220
SWIDTH 440 0
DWIDTH 11 0
BBX 9 7 1 11
BITMAP
3180
7380
C600
C600
F780
F780
6300
ENDCHAR
STARTCHAR 201D
ENCODING 8221
SWIDTH 440 0
DWIDTH 11 0
BBX 9 7 1 11
BITMAP
6700
F780
F780
7380
3180
E700
C600
ENDCHAR
STARTCHAR 201E
ENCODING 8222
SWIDTH 440 0
DWIDTH 11 0
BBX 9 8 1 -4
BITMAP
4200
F780
F780
F780
3180
2300
E700
C400
ENDCHAR
STARTCHAR 2020
ENCODING 8224
SWIDTH 400 0
DWIDTH 10 0
BBX 9 14 1 4
BITMAP
1C00
1C00
1C00
FF80
FF80
FF80
1C00
1C00
1C00
1C00
1C00
1C00
1C00
1C00
ENDCHAR
STARTCHAR 2021
ENCODING 8225
SWIDTH 440 0
DWIDTH 11 0
BBX 9 18 1 0
BITMAP
1C00
1C00
1C00
FF80
FF80
FF80
1C00
1C00
1C00
1C00
1C00
1C00
FF80
FF80
FF80
1C00
1C00
1C00
ENDCHAR
STARTCHAR 2022
ENCODING 8226
SWIDTH 520 0
DWIDTH 13 0
BBX 11 10 1 2
BITMAP
1F00
3F80
7FC0
7FE0
FFE0
FFE0
7FE0
7FC0
3F80
1F00
ENDCHAR
STARTCHAR 2026
ENCODING 8230
SWIDTH 920 0
DWIDTH 23 0
BBX 19 4 2 0
BITMAP
60E0C0
F0E1E0
F0E1E0
60E0C0
ENDCHAR
STARTCHAR 2030
ENCODING 8240
SWIDTH 1080 0
DWIDTH 27 0
BBX 25 16 1 0
BITMAP
3C038000
7F070000
F70E0000
E31C0000
E31C0000
F7380000
7E700000
3C700000
00E00000
01C7DE00
038FFF80
039CF380
071C6180
0E1EF380
0E0FFF00
1C079E00
ENDCHAR
STARTCHAR 2039
ENCODING 8249
SWIDTH 320 0
DWIDTH 8 0
BBX 6 10 1 2
BITMAP
1C
38
78
70
E0
E0
70
78
38
1C
ENDCHAR
STARTCHAR 203A
ENCODING 8250
SWIDTH 320 0
DWIDTH 8 0
BBX 6 10 1 2
BITMAP
E0
F0
70
38
3C
1C
38
70
F0
E0
ENDCHAR
STARTCHAR 2042
ENCODING 8258
SWIDTH 840 0
DWIDTH 21 0
BBX 19 18 1 0
BITMAP
00E000
00E000
02F800
07FC00
03F800
01F000
03B000
013000
000000
000000
180300
180300
FF1FE0
FFBFE0
3C0780
3E0F80
771DC0
260880
ENDCHAR
STARTCHAR 2044
ENCODING 8260
SWIDTH 560 0
DWIDTH 14 0
BBX 14 16 0 0
BITMAP
001C
0038
0038
0070
00E0
00C0
01C0
0380
0700
0700
0E00
1C00
3800
3800
7000
E000
ENDCHAR
STARTCHAR 2051
ENCODING 8273
SWIDTH 440 0
DWIDTH 11 0
BBX 9 18 1 0
BITMAP
1800
1800
DB00
FF80
7E00
3E00
7600
6600
0000
0000
1800
1800
FF00
FF80
3C00
3E00
7700
2200
ENDCHAR
STARTCHAR 2070
ENCODING 8304
SWIDTH 440 0
DWIDTH 11 0
BBX 9 10 1 8
BITMAP
3E00
7F00
6700
E300
E380
E380
E300
7700
7F00
3E00
ENDCHAR
STARTCHAR 2074
ENCODING 8308
SWIDTH 440 0
DWIDTH 11 0
BBX 9 10 1 8
BITMAP
0E00
1E00
1E00
3600
6600
E600
FF80
FF80
0600
0600
ENDCHAR
STARTCHAR 2075
ENCODING 8309
SWIDTH 400 0
DWIDTH 10 0
BBX 8 9 1 9
BITMAP
3E
7E
60
7E
7F
07
E7
7E
3C
ENDCHAR
STARTCHAR 2076
ENCODING 8310
SWIDTH 400 0
DWIDTH 10 0
BBX 8 10 1 8
BITMAP
1F
3F
70
6C
FF
F7
E3
67
7F
3C
ENDCHAR
STARTCHAR 2077
ENCODING 8311
SWIDTH 400 0
DWIDTH 10 0
BBX 8 9 1 9
BITMAP
FF
FF
06
0E
1C
18
38
38
30
ENDCHAR
STARTCHAR 2078
ENCODING 8312
SWIDTH 440 0
DWIDTH 11 0
BBX 8 10 1 8
BITMAP
3E
7F
67
67
7E
7E
E3
E7
7F
3E
ENDCHAR
STARTCHAR 2079
ENCODING 8313
SWIDTH 400 0
DWIDTH 10 0
BBX 8 10 1 8
BITMAP
3C
7E
E7
E7
F7
7F
17
06
7E
78
ENDCHAR
STARTCHAR 2080
ENCODING 8320
SWIDTH 440 0
DWIDTH 11 0
BBX 9 9 1 -2
BITMAP
3E00
7F00
6300
E380
E380
E300
6300
7F00
3E00
ENDCHAR
STARTCHAR 2081
ENCODING 8321
SWIDTH 320 0
DWIDTH 8 0
BBX 5 10 1 -3
BITMAP
38
38
F8
F8
38
38
38
38
38
38
ENDCHAR
STARTCHAR 2082
ENCODING 8322
SWIDTH 400 0
DWIDTH 10 0
BBX 8 10 1 -3
BITMAP
3C
7E
E6
E6
0E
1C
78
70
FF
FF
ENDCHAR
STARTCHAR 2083
ENCODING 8323
SWIDTH 400 0
DWIDTH 10 0
BBX 8 10 1 -3
BITMAP
7F
7F
0E
1C
1E
1F
27
E7
7E
3C
ENDCHAR
STARTCHAR 2084
ENCODING 8324
SWIDTH 440 0
DWIDTH 11 0
BBX 9 10 1 -3
BITMAP
0E00
1E00
1E00
3600
6600
E600
FF80
FF80
0600
0600
ENDCHAR
STARTCHAR 2085
ENCODING 8325
SWIDTH 400 0
DWIDTH 10 0
BBX 8 10 1 -3
BITMAP
3E
7E
60
7C
7E
27
07
E7
7E
3C
ENDCHAR
STARTCHAR 2086
ENCODING 8326
SWIDTH 400 0
DWIDTH 10 0
BBX 8 10 1 -3
BITMAP
1F
3F
70
6C
FF
F7
E3
67
7F
3C
ENDCHAR
STARTCHAR 2087
ENCODING 8327
SWIDTH 400 0
DWIDTH 10 0
BBX 8 10 1 -3
BITMAP
FF
FF
07
0E
1C
1C
38
38
38
30
ENDCHAR
STARTCHAR 2088
ENCODING 8328
SWIDTH 440 0
DWIDTH 11 0
BBX 8 10 1 -3
BITMAP
3C
7F
67
67
7E
7E
E3
E7
7F
3E
ENDCHAR
STARTCHAR 2089
ENCODING 8329
SWIDTH 400 0
DWIDTH 10 0
BBX 8 10 1 -3
BITMAP
3C
7E
E7
E7
F7
7F
17
06
7E
78
ENDCHAR
STARTCHAR 20AC
ENCODING 8364
SWIDTH 680 0
DWIDTH 17 0
BBX 14 16 2 0
BITMAP
01F8
07FC
0FF8
1E08
3C00
FFF0
FFE0
7800
7800
FFC0
FF80
3C00
1E08
1FFC
07FC
01F8
ENDCHAR
STARTCHAR 2113
ENCODING 8467
SWIDTH 440 0
DWIDTH 11 0
BBX 9 16 1 0
BITMAP
1E00
3F00
3F80
7B80
7380
7380
7700
7F00
7E00
FC00
F000
F800
7800
3F00
3F00
0F00
ENDCHAR
STARTCHAR 2122
ENCODING 8482
SWIDTH 880 0
DWIDTH 22 0
BBX 19 9 1 9
BITMAP
FE70E0
FE78E0
3879E0
3879E0
387FE0
386F60
386F60
386760
386660
ENDCHAR
STARTCHAR 2126
ENCODING 8486
SWIDTH 800 0
DWIDTH 20 0
BBX 17 18 1 0
BITMAP
03F000
0FFC00
3FFE00
3E3F00
780F80
700780
F00380
F00380
F00380
F00380
700780
780780
3C0F00
1F3E00
0F3800
FF3F80
FF3F80
FF3F80
ENDCHAR
STARTCHAR 2160
ENCODING 8544
SWIDTH 480 0
DWIDTH 12 0
BBX 10 16 1 0
BITMAP
FFC0
FFC0
FFC0
0E00
0E00
0E00
0E00
0E00
0E00
0E00
0E00
0E00
0E00
FFC0
FFC0
FFC0
ENDCHAR
STARTCHAR 2161
ENCODING 8545
SWIDTH 800 0
DWIDTH 20 0
BBX 17 16 1 0
BITMAP
FFFF80
FFFF80
FFFF80
0E1C00
0E1C00
0E1C00
0E1C00
0E1C00
0E1C00
0E1C00
0E1C00
0E1C00
0E1C00
FFFF80
FFFF80
FFFF80
ENDCHAR
STARTCHAR 2162
ENCODING 8546
SWIDTH 1080 0
DWIDTH 27 0
BBX 24 16 1 0
BITMAP
FFFFFF
FFFFFF
FFFFFF
0E1C38
0E1C38
0E1C38
0E1C38
0E1C38
0E1C38
0E1C38
0E1C38
0E1C38
0E1C38
FFFFFF
FFFFFF
FFFFFF
ENDCHAR
STARTCHAR 2163
ENCODING 8547
SWIDTH 1040 0
DWIDTH 26 0
BBX 24 16 1 0
BITMAP
FFFFFF
FFFFFF
FFFFFF
1E7838
1E7838
1E3878
1E3C70
1E3C70
1E1CF0
1E1CE0
1E1EE0
1E0FE0
1E0FC0
FFFFFF
FFFFFF
FFFFFF
ENDCHAR
STARTCHAR 2164
ENCODING 8548
SWIDTH 800 0
DWIDTH 20 0
BBX 18 16 1 0
BITMAP
FFFFC0
FFFFC0
FFFFC0
1E0E00
1E1E00
0E1E00
0E1C00
0F3C00
073C00
073800
07B800
03F800
03F000
FFFFC0
FFFFC0
FFFFC0
ENDCHAR
STARTCHAR 2165
ENCODING 8549
SWIDTH 1040 0
DWIDTH 26 0
BBX 24 16 1 0
BITMAP
FFFFFF
FFFFFF
FFFFFF
1E0E78
1E1E78
0E1E78
0E1C78
0F1C78
073C78
073878
07B878
03F878
03F078
FFFFFF
FFFFFF
FFFFFF
ENDCHAR
STARTCHAR 2166
ENCODING 8550
SWIDTH 1320 0
DWIDTH 33 0
BBX 31 16 1 0
BITMAP
FFFFFFFE
FFFFFFFE
FFFFFFFE
1E0E78F0
1E1E78F0
0E1E78F0
0E1C78F0
0F1C78F0
073C78F0
073878F0
07B878F0
03F878F0
03F078F0
FFFFFFFE
FFFFFFFE
FFFFFFFE
ENDCHAR
STARTCHAR 2167
ENCODING 8551
SWIDTH 1600 0
DWIDTH 40 0
BBX 38 16 1 0
BITMAP
FFFFFFFFFC
FFFFFFFFFC
FFFFFFFFFC
1E0E78F1C0
1E1E78F1C0
0E1E78F1C0
0E1C78F1C0
0F3C78F1C0
073C78F1C0
073878F1C0
07B878F1C0
03F878F1C0
03F078F1C0
FFFFFFFFFC
FFFFFFFFFC
FFFFFFFFFC
ENDCHAR
STARTCHAR 2168
ENCODING 8552
SWIDTH 1040 0
DWIDTH 26 0
BBX 23 16 1 0
BITMAP
FFFFFE
FFFFFE
FFFFFE
1E7870
1E3CF0
1E1FE0
1E0FC0
1E0FC0
1E0F80
1E0FC0
1E1FE0
1E3CF0
1E78F0
FFFFFE
FFFFFE
FFFFFE
ENDCHAR
STARTCHAR 2169
ENCODING 8553
SWIDTH 800 0
DWIDTH 20 0
BBX 17 16 1 0
BITMAP
FFFF80
FFFF80
FFFF80
1E3C00
0F3C00
07F800
07F000
03E000
03E000
07F000
07F800
0F7800
1E3C00
FFFF80
FFFF80
FFFF80
ENDCHAR
STARTCHAR 216C
ENCODING 8556
SWIDTH 640 0
DWIDTH 16 0
BBX 14 16 1 0
BITMAP
FFC0
FFC0
FFC0
1C00
1C00
1C00
1C00
1C00
1C00
1C1C
1C1C
1C1C
1C1C
FFFC
FFFC
FFFC
ENDCHAR
STARTCHAR 216D
ENCODING 8557
SWIDTH 720 0
DWIDTH 18 0
BBX 16 16 1 0
BITMAP
03E7
0FFF
3FFF
3C1F
700F
7007
F000
E000
F000
F000
7007
780F
7C1F
3FFF
1FFF
07E7
ENDCHAR
STARTCHAR 216E
ENCODING 8558
SWIDTH 760 0
DWIDTH 19 0
BBX 16 16 1 0
BITMAP
FFF0
FFF8
FFFE
1E1E
1E0F
1E0F
1E07
1E07
1E07
1E07
1E0F
1E0F
1E1E
FFFE
FFF8
FFE0
ENDCHAR
STARTCHAR 216F
ENCODING 8559
SWIDTH 1040 0
DWIDTH 26 0
BBX 24 16 1 0
BITMAP
FF00FF
FF00FF
FF81FF
1F81F8
1FC1F8
1DC3F8
1DC3B8
1DE7B8
1CE738
1CF738
1C7F38
1C7E38
1C7E38
FF3CFF
FF3CFF
FF18FF
ENDCHAR
STARTCHAR 2190
ENCODING 8592
SWIDTH 1080 0
DWIDTH 27 0
BBX 25 11 0 2
BITMAP
04000000
04000000
1C000000
3C000000
7FFFFF80
FFFFFF80
7FFFFF80
3C000000
1C000000
04000000
04000000
ENDCHAR
STARTCHAR 2191
ENCODING 8593
SWIDTH 480 0
DWIDTH 12 0
BBX 11 24 1 -4
BITMAP
0400
0E00
1F00
1F80
3F80
7FC0
FFE0
0E00
0E00
0E00
0E00
0E00
0E00
0E00
0E00
0E00
0E00
0E00
0E00
0E00
0E00
0E00
0E00
0E00
ENDCHAR
STARTCHAR 2192
ENCODING 8594
SWIDTH 1080 0
DWIDTH 27 0
BBX 25 11 1 2
BITMAP
00002000
00003000
00003800
00003E00
FFFFFF00
FFFFFF80
FFFFFF00
00003E00
00003800
00003000
00002000
ENDCHAR
STARTCHAR 2193
ENCODING 8595
SWIDTH 480 0
DWIDTH 12 0
BBX 11 24 0 -4
BITMAP
0E00
0E00
0E00
0E00
0E00
0E00
0E00
0E00
0E00
0E00
0E00
0E00
0E00
0E00
0E00
0E00
0E00
FFE0
7FC0
3F80
1F80
1F00
0E00
0400
ENDCHAR
STARTCHAR 2196
ENCODING 8598
SWIDTH 880 0
DWIDTH 22 0
BBX 17 18 2 0
BITMAP
FE0000
FC0000
F80000
F80000
FC0000
DE0000
8F0000
878000
03C000
01E000
00F000
007800
003C00
001E00
000F00
000780
000380
000100
ENDCHAR
STARTCHAR 2197
ENCODING 8599
SWIDTH 760 0
DWIDTH 19 0
BBX 18 18 -1 0
BITMAP
003FC0
001FC0
000FC0
000FC0
001FC0
003DC0
0078C0
00F040
01E000
03C000
078000
0F0000
1E0000
3C0000
780000
F00000
E00000
400000
ENDCHAR
STARTCHAR 2198
ENCODING 8600
SWIDTH 840 0
DWIDTH 21 0
BBX 17 18 2 0
BITMAP
400000
E00000
F00000
780000
3C0000
1E0000
0F0000
078000
03C000
01E000
00F080
007980
003F80
001F80
000F80
001F80
003F80
007F80
ENDCHAR
STARTCHAR 2199
ENCODING 8601
SWIDTH 760 0
DWIDTH 19 0
BBX 17 18 1 0
BITMAP
000100
000380
000780
000F00
001E00
003C00
007800
00F000
01E000
03C000
878000
CF0000
FE0000
FC0000
F80000
FC0000
FE0000
FF0000
ENDCHAR
STARTCHAR 21A9
ENCODING 8617
SWIDTH 880 0
DWIDTH 22 0
BBX 21 15 0 1
BITMAP
003FC0
003FE0
003FF0
000078
040038
0C0038
1C0038
3C0078
7FFFF0
FFFFE0
7FFF80
3C0000
1C0000
0C0000
040000
ENDCHAR
STARTCHAR 21B0
ENCODING 8624
SWIDTH 800 0
DWIDTH 20 0
BBX 17 18 1 0
BITMAP
020000
060000
0E0000
3E0000
7FFF80
FFFF80
7FFF80
3E0380
1E0380
060380
020380
000380
000380
000380
000380
000380
000380
000380
ENDCHAR
STARTCHAR 21B1
ENCODING 8625
SWIDTH 760 0
DWIDTH 19 0
BBX 17 18 1 0
BITMAP
001000
001800
001C00
001E00
FFFF00
FFFF80
FFFF00
E01E00
E01C00
E01800
E01000
E00000
E00000
E00000
E00000
E00000
E00000
E00000
ENDCHAR
STARTCHAR 21B2
ENCODING 8626
SWIDTH 760 0
DWIDTH 19 0
BBX 17 18 0 0
BITMAP
000380
000380
000380
000380
000380
000380
000380
040380
0C0380
1C0380
3C0380
7FFF80
FFFF80
7FFF80
3C0000
1C0000
0C0000
040000
ENDCHAR
STARTCHAR 21B3
ENCODING 8627
SWIDTH 840 0
DWIDTH 21 0
BBX 17 18 2 0
BITMAP
E00000
E00000
E00000
E00000
E00000
E00000
E00000
E01000
E01800
E01C00
E01E00
FFFF00
FFFF80
FFFF00
001E00
001C00
001800
002000
ENDCHAR
STARTCHAR 21B4
ENCODING 8628
SWIDTH 800 0
DWIDTH 20 0
BBX 17 18 2 0
BITMAP
FFFC00
FFFC00
FFFC00
001C00
001C00
001C00
001C00
001C00
001C00
001C00
001C00
001C00
01FF80
00FF00
007E00
003C00
001C00
000800
ENDCHAR
STARTCHAR 21C6
ENCODING 8646
SWIDTH 1160 0
DWIDTH 29 0
BBX 26 22 2 -2
BITMAP
04000000
04000000
0C000000
1C000000
3C000000
7FFFFF80
FFFFFF80
7FFFFF80
3C000000
1C000000
04000000
00001800
00001C00
00001E00
FFFFFF00
FFFFFFC0
FFFFFF80
00001F00
00001E00
00001C00
00001800
00001000
ENDCHAR
STARTCHAR 2202
ENCODING 8706
SWIDTH 640 0
DWIDTH 16 0
BBX 14 18 1 0
BITMAP
3F80
7FC0
7FF0
00F0
0078
0038
0F38
3FF8
7FFC
F87C
F038
E038
E038
F078
F8F0
7FF0
3FE0
0F80
ENDCHAR
STARTCHAR 2206
ENCODING 8710
SWIDTH 680 0
DWIDTH 17 0
BBX 17 18 0 0
BITMAP
01E000
03E000
03E000
07F000
077000
077800
0F3800
0E3800
0E3C00
1E1C00
1C1C00
3C1E00
3C0E00
380F00
780F00
7FFF00
7FFF80
FFFF80
ENDCHAR
STARTCHAR 220F
ENCODING 8719
SWIDTH 680 0
DWIDTH 17 0
BBX 13 18 2 0
BITMAP
FFF8
FFF8
FFF8
E038
E038
E038
E038
E038
E038
E038
E038
E038
E038
E038
E038
E038
E038
E038
ENDCHAR
STARTCHAR 2211
ENCODING 8721
SWIDTH 560 0
DWIDTH 14 0
BBX 13 18 1 0
BITMAP
FFF8
FFF8
FFF8
F800
7C00
3E00
0F00
0780
03C0
03C0
0780
0F00
3E00
7C00
F800
FFF8
FFF8
FFF8
ENDCHAR
STARTCHAR 2212
ENCODING 8722
SWIDTH 560 0
DWIDTH 14 0
BBX 12 3 1 6
BITMAP
FFF0
FFF0
FFF0
ENDCHAR
STARTCHAR 2215
ENCODING 8725
SWIDTH 440 0
DWIDTH 11 0
BBX 11 16 0 0
BITMAP
00E0
01C0
01C0
0380
0380
0700
0700
0E00
0E00
1C00
1C00
3800
3800
7000
7000
E000
ENDCHAR
STARTCHAR 2219
ENCODING 8729
SWIDTH 280 0
DWIDTH 7 0
BBX 4 4 2 6
BITMAP
E0
F0
F0
E0
ENDCHAR
STARTCHAR 221A
ENCODING 8730
SWIDTH 680 0
DWIDTH 17 0
BBX 17 22 1 0
BITMAP
000F80
001F80
001F80
001C00
003800
003800
003800
007000
007000
E07000
F0E000
70E000
70E000
39C000
39C000
39C000
1F8000
1F8000
1F8000
0F0000
0F0000
0F0000
ENDCHAR
STARTCHAR 221E
ENCODING 8734
SWIDTH 840 0
DWIDTH 21 0
BBX 19 9 1 3
BITMAP
1E0F00
7F1F80
7FBFC0
F3F1E0
E1E0E0
E1F1E0
7FFFC0
7F3FC0
1E0F00
ENDCHAR
STARTCHAR 222B
ENCODING 8747
SWIDTH 360 0
DWIDTH 9 0
BBX 9 23 0 -5
BITMAP
0780
0F80
1F80
1C00
1C00
1C00
1C00
1C00
1C00
1C00
1C00
1C00
1C00
1C00
1C00
1C00
1C00
1C00
1C00
3C00
FC00
F800
F000
ENDCHAR
STARTCHAR 2248
ENCODING 8776
SWIDTH 600 0
DWIDTH 15 0
BBX 13 10 1 2
BITMAP
3C00
7F10
FFF8
43F0
01C0
3C00
7F10
FFF8
43F0
01C0
ENDCHAR
STARTCHAR 2260
ENCODING 8800
SWIDTH 600 0
DWIDTH 15 0
BBX 13 12 1 1
BITMAP
0070
00E0
FFF8
FFF8
FFF8
0700
0700
FFF8
FFF8
FFF8
3800
7000
ENDCHAR
STARTCHAR 2264
ENCODING 8804
SWIDTH 560 0
DWIDTH 14 0
BBX 11 13 1 1
BITMAP
0020
03E0
1FE0
FF80
F800
FE00
7FC0
07E0
00E0
0000
FFE0
FFE0
FFE0
ENDCHAR
STARTCHAR 2265
ENCODING 8805
SWIDTH 560 0
DWIDTH 14 0
BBX 11 13 1 1
BITMAP
C000
F800
FF00
1FE0
03E0
07E0
3FC0
FE00
F000
8000
FFE0
FFE0
FFE0
ENDCHAR
STARTCHAR 22C5
ENCODING 8901
SWIDTH 280 0
DWIDTH 7 0
BBX 4 4 2 6
BITMAP
E0
F0
F0
E0
ENDCHAR
STARTCHAR 24C5
ENCODING 9413
SWIDTH 800 0
DWIDTH 20 0
BBX 18 18 1 0
BITMAP
03F000
0FFC00
1C0F00
380380
73F180
63F9C0
E31CC0
C31CC0
C318C0
C3F8C0
C3F0C0
C300C0
6300C0
730180
380380
1C0F00
0FFC00
03F000
ENDCHAR
STARTCHAR 25A0
ENCODING 9632
SWIDTH 920 0
DWIDTH 23 0
BBX 17 18 3 0
BITMAP
FFFF80
FFFF80
FFFF80
FFFF80
FFFF80
FFFF80
FFFF80
FFFF80
FFFF80
FFFF80
FFFF80
FFFF80
FFFF80
FFFF80
FFFF80
FFFF80
FFFF80
FFFF80
ENDCHAR
STARTCHAR 25A1
ENCODING 9633
SWIDTH 920 0
DWIDTH 23 0
BBX 17 18 3 0
BITMAP
FFFF80
FFFF80
FFFF80
C00380
C00380
C00380
C00380
C00380
C00380
C00380
C00380
C00380
C00380
C00380
C00380
FFFF80
FFFF80
FFFF80
ENDCHAR
STARTCHAR 25B2
ENCODING 9650
SWIDTH 840 0
DWIDTH 21 0
BBX 21 18 0 0
BITMAP
002000
002000
007000
00F800
00F800
01FC00
01FC00
03FE00
03FE00
07FF00
0FFF80
0FFF80
1FFFC0
1FFFC0
3FFFE0
7FFFE0
7FFFF0
FFFFF8
ENDCHAR
STARTCHAR 25B3
ENCODING 9651
SWIDTH 840 0
DWIDTH 21 0
BBX 21 18 0 0
BITMAP
002000
002000
007000
00F800
00F800
01FC00
01DC00
039E00
038E00
070700
0F0780
0E0380
1E03C0
1C01C0
3800E0
7FFFE0
7FFFF0
FFFFF8
ENDCHAR
STARTCHAR 25CA
ENCODING 9674
SWIDTH 600 0
DWIDTH 15 0
BBX 13 18 1 0
BITMAP
0780
0F80
1FC0
1FE0
3DE0
38F0
78F0
7078
F038
F038
7078
7870
38F0
3DE0
1FE0
1FC0
0F80
0780
ENDCHAR
STARTCHAR 25CB
ENCODING 9675
SWIDTH 800 0
DWIDTH 20 0
BBX 18 18 1 0
BITMAP
03F000
0FFC00
1FFF00
3C0F80
780780
7003C0
E001C0
E001C0
E001C0
E001C0
E001C0
E001C0
7003C0
780380
3C0F00
1FFF00
0FFC00
03F000
ENDCHAR
STARTCHAR 25CF
ENCODING 9679
SWIDTH 800 0
DWIDTH 20 0
BBX 18 18 1 0
BITMAP
03F000
0FFC00
1FFF00
3FFF80
7FFF80
7FFFC0
FFFFC0
FFFFC0
FFFFC0
FFFFC0
FFFFC0
FFFFC0
7FFFC0
7FFF80
3FFF00
1FFF00
0FFC00
03F000
ENDCHAR
STARTCHAR 262E
ENCODING 9774
SWIDTH 800 0
DWIDTH 20 0
BBX 18 18 1 0
BITMAP
03F000
0FFC00
1FFF00
3CEF80
78E380
70E3C0
E0E1C0
E0E1C0
E1F0C0
E7F8C0
EFFDC0
FEFFC0
7CEFC0
78E780
3CEF00
1FFF00
0FFC00
03F000
ENDCHAR
STARTCHAR 2713
ENCODING 10003
SWIDTH 960 0
DWIDTH 24 0
BBX 22 18 1 0
BITMAP
000008
00001C
00003C
000078
0000F0
0001E0
0003C0
000780
400F00
E01E00
F03C00
787800
38F000
1DE000
1FC000
0F8000
070000
020000
ENDCHAR
STARTCHAR 2715
ENCODING 10005
SWIDTH 760 0
DWIDTH 19 0
BBX 17 18 1 0
BITMAP
400100
E00380
F00780
780F00
3C1E00
1E3C00
0F7800
07F000
03E000
03E000
07F000
0F7800
1E3C00
3C1E00
780F00
F00780
E00380
400100
ENDCHAR
STARTCHAR 2780
ENCODING 10112
SWIDTH 840 0
DWIDTH 21 0
BBX 18 18 1 0
BITMAP
03F000
0FFC00
1E0F00
380380
700180
60E1C0
E3E0C0
C3E0C0
C0E0C0
C0E0C0
C0E0C0
E0E0C0
60E1C0
700180
380380
1E0F00
0FFC00
03F000
ENDCHAR
STARTCHAR 2781
ENCODING 10113
SWIDTH 840 0
DWIDTH 21 0
BBX 18 18 1 0
BITMAP
03F000
0FFC00
1C0F00
380380
71E180
63F1C0
E338C0
C338C0
C070C0
C1E0C0
C380C0
E3F8C0
63F9C0
700180
380380
1E0F00
0FFC00
03F000
ENDCHAR
STARTCHAR 2782
ENCODING 10114
SWIDTH 840 0
DWIDTH 21 0
BBX 18 18 1 0
BITMAP
03F000
0FFC00
1E0F00
380700
700180
63F9C0
63F8C0
C070C0
C0E0C0
C0F8C0
C038C0
E738C0
63F8C0
71E180
380380
1C0F00
0FFC00
03F000
ENDCHAR
STARTCHAR 2783
ENCODING 10115
SWIDTH 840 0
DWIDTH 21 0
BBX 18 18 1 0
BITMAP
03F000
0FFC00
1E0F00
380380
707180
60F1C0
61F0C0
C3F0C0
C370C0
C670C0
C7F8C0
E7F8C0
6070C0
707180
380380
1C0F00
0FFC00
03F000
ENDCHAR
STARTCHAR 2784
ENCODING 10116
SWIDTH 840 0
DWIDTH 21 0
BBX 18 18 1 0
BITMAP
03F000
0FFC00
1E0F00
380380
700180
61F1C0
63F0C0
C300C0
C3F0C0
C3F8C0
C038C0
E738C0
63F0C0
71E180
380380
1C0F00
0FFC00
03F000
ENDCHAR
STARTCHAR 2785
ENCODING 10117
SWIDTH 840 0
DWIDTH 21 0
BBX 18 18 1 0
BITMAP
03F000
0FFE00
1C0F00
380380
70F980
63F1C0
E380C0
C760C0
C7F0C0
C778C0
C738C0
E738C0
63F0C0
71E180
380380
1C0F00
0FFC00
03F000
ENDCHAR
STARTCHAR 2786
ENCODING 10118
SWIDTH 840 0
DWIDTH 21 0
BBX 18 18 1 0
BITMAP
03F000
0FFC00
1E0F00
380380
700180
67F9C0
E7F8C0
C030C0
C070C0
C0E0C0
C0C0C0
E1C0C0
61C0C0
71C180
380380
1C0F00
0FFC00
03F000
ENDCHAR
STARTCHAR 2787
ENCODING 10119
SWIDTH 840 0
DWIDTH 21 0
BBX 18 18 1 0
BITMAP
03F000
0FFE00
1C0F00
380380
71F180
63F9C0
E338C0
C338C0
C3F0C0
C3F0C0
C718C0
E738C0
63F8C0
71F180
380380
1C0F00
0FFC00
03F000
ENDCHAR
STARTCHAR 2788
ENCODING 10120
SWIDTH 840 0
DWIDTH 21 0
BBX 18 18 1 0
BITMAP
03F000
0FFE00
1C0F00
380380
71E180
63F9C0
E338C0
C718C0
C3B8C0
C3F8C0
C098C0
E038C0
63F0C0
73E180
380380
1C0F00
0FFC00
03F000
ENDCHAR
STARTCHAR E000
ENCODING 57344
SWIDTH 760 0
DWIDTH 19 0
BBX 18 18 0 0
BITMAP
0FFFC0
0FFFC0
0FFFC0
0E0000
0E0000
0E0000
0E0000
0E0000
0E0000
0E0000
0E0000
0E0000
FFE000
3FC000
3F8000
1F0000
0E0000
040000
ENDCHAR
STARTCHAR E001
ENCODING 57345
SWIDTH 1120 0
DWIDTH 28 0
BBX 26 18 1 0
BITMAP
003F0000
00FF8000
01FF8000
03C00800
07801C00
07003E00
0E003F00
0E007F80
0E00FFC0
FFC01C00
7F801C00
3F001C00
1F003800
0E007800
0400F000
007FE000
007FC000
003F0000
ENDCHAR
STARTCHAR E002
ENCODING 57346
SWIDTH 960 0
DWIDTH 24 0
BBX 22 18 1 0
BITMAP
03F000
0FF800
1FF800
3E0080
7800C0
7001E0
7003F0
E007F8
E00FFC
E000E0
E000C0
F001C0
7001C0
780380
3E0F80
1FFF00
0FFC00
03F000
ENDCHAR
STARTCHAR FB00
ENCODING 64256
SWIDTH 680 0
DWIDTH 17 0
BBX 17 18 0 0
BITMAP
078780
1F8F80
1F9F80
1C1C00
3C3C00
3C3C00
FFFF80
FFFF80
FFFF80
3C3C00
3C3C00
3C3C00
3C3C00
3C3C00
3C3C00
3C3C00
3C3C00
3C3C00
ENDCHAR
STARTCHAR FB01
ENCODING 64257
SWIDTH 640 0
DWIDTH 16 0
BBX 14 18 0 0
BITMAP
079C
1FBC
1FBC
1C1C
3C00
3C00
FFFC
FFFC
FFFC
3C1C
3C1C
3C1C
3C1C
3C1C
3C1C
3C1C
3C1C
3C1C
ENDCHAR
STARTCHAR FB02
ENCODING 64258
SWIDTH 640 0
DWIDTH 16 0
BBX 14 18 0 0
BITMAP
079C
1F9C
1F9C
1C1C
3C1C
3C1C
FFFC
FFFC
FFFC
3C1C
3C1C
3C1C
3C1C
3C1C
3C1C
3C1C
3C1C
3C1C
ENDCHAR
STARTCHAR FB03
ENCODING 64259
SWIDTH 960 0
DWIDTH 24 0
BBX 22 18 0 0
BITMAP
07879C
1F8FBC
1F9FBC
1C1C1C
3C3C00
3C3C00
FFFFFC
FFFFFC
FFFFFC
3C3C1C
3C3C1C
3C3C1C
3C3C1C
3C3C1C
3C3C1C
3C3C1C
3C3C1C
3C3C1C
ENDCHAR
STARTCHAR FB04
ENCODING 64260
SWIDTH 960 0
DWIDTH 24 0
BBX 22 18 0 0
BITMAP
07879C
1F8F9C
1F9F9C
1C1C1C
3C3C1C
3C3C1C
FFFFFC
FFFFFC
FFFFFC
3C3C1C
3C3C1C
3C3C1C
3C3C1C
3C3C1C
3C3C1C
3C3C1C
3C3C1C
3C3C1C
ENDCHAR
STARTCHAR FEFF
ENCODING 65279
SWIDTH 0 0
DWIDTH 0 0
BBX 0 0 0 0
BITMAP
ENDCHAR
ENDFONT
